<?xml version="1.0" encoding="UTF-8" standalone="no"?>
<svg
   xmlns:dc="http://purl.org/dc/elements/1.1/"
   xmlns:cc="http://creativecommons.org/ns#"
   xmlns:rdf="http://www.w3.org/1999/02/22-rdf-syntax-ns#"
   xmlns:svg="http://www.w3.org/2000/svg"
   xmlns="http://www.w3.org/2000/svg"
   xmlns:sodipodi="http://sodipodi.sourceforge.net/DTD/sodipodi-0.dtd"
   xmlns:inkscape="http://www.inkscape.org/namespaces/inkscape"
   inkscape:version="1.0 (4035a4fb49, 2020-05-01)"
   viewBox="-5 -5 42 42"
   version="1.1"
   id="svg591"
   sodipodi:docname="application-rss+xml.svg">
  <metadata
     id="metadata597">
    <rdf:RDF>
      <cc:Work
         rdf:about="">
        <dc:format>image/svg+xml</dc:format>
        <dc:type
           rdf:resource="http://purl.org/dc/dcmitype/StillImage" />
      </cc:Work>
    </rdf:RDF>
  </metadata>
  <defs
     id="defs595" />
  <sodipodi:namedview
     inkscape:document-rotation="0"
     inkscape:current-layer="svg591"
     inkscape:cy="21"
     inkscape:cx="21"
     inkscape:zoom="25.960265"
     showgrid="false"
     id="namedview593"
     inkscape:window-height="480"
     inkscape:window-width="640"
     inkscape:pageshadow="2"
     inkscape:pageopacity="0"
     guidetolerance="10"
     gridtolerance="10"
     objecttolerance="10"
     borderopacity="1"
     bordercolor="#666666"
     pagecolor="#ffffff" />
  <path
     id="path589"
     d="M30.2 28.8c0 .4-.1.7-.4.9-.2.3-.6.4-.9.4H26c-.3 0-.6-.1-.9-.4-.2-.2-.4-.5-.4-.9-.2-2.9-.8-5.6-2-8.2-1.2-2.6-2.8-4.9-4.7-6.8-1.9-1.9-4.2-3.5-6.8-4.7-2.5-1-5.3-1.7-8.2-1.8-.3 0-.6-.1-.9-.4-.2-.3-.3-.6-.3-.9V3.1c0-.4.1-.7.4-.9.2-.2.5-.4.9-.4h.1c3.5.2 6.8 1 10.1 2.4 3.2 1.4 6.1 3.4 8.6 5.9 2.5 2.5 4.5 5.4 5.9 8.6 1.4 3.2 2.2 6.6 2.4 10.1zm-10.3 0c0 .4-.1.7-.3 1-.2.3-.6.4-.9.4H16c-.3 0-.6-.1-.9-.3-.2-.2-.4-.5-.4-.8-.3-3.1-1.5-5.7-3.7-7.9s-4.9-3.5-8-3.8c-.3 0-.6-.2-.8-.4-.2-.2-.3-.5-.3-.9v-2.7c0-.4.1-.7.4-.9.2-.2.5-.3.9-.3h.1c2.2.2 4.2.7 6.2 1.6s3.7 2.1 5.2 3.7c1.5 1.5 2.8 3.3 3.7 5.2.8 1.9 1.3 3.9 1.5 6.1zM8.4 23.6c.8.8 1.1 1.7 1.1 2.7 0 1.1-.4 2-1.1 2.7-.8.8-1.7 1.1-2.7 1.1-1.1 0-2-.4-2.7-1.1-.8-.8-1.1-1.7-1.1-2.7 0-1.1.4-2 1.1-2.7.8-.8 1.7-1.1 2.7-1.1 1.1 0 2 .3 2.7 1.1z"
     fill="#f78c6c" />
</svg>
