<?xml version="1.0" encoding="UTF-8" standalone="no"?>
<svg
   xmlns:dc="http://purl.org/dc/elements/1.1/"
   xmlns:cc="http://creativecommons.org/ns#"
   xmlns:rdf="http://www.w3.org/1999/02/22-rdf-syntax-ns#"
   xmlns:svg="http://www.w3.org/2000/svg"
   xmlns="http://www.w3.org/2000/svg"
   xmlns:sodipodi="http://sodipodi.sourceforge.net/DTD/sodipodi-0.dtd"
   xmlns:inkscape="http://www.inkscape.org/namespaces/inkscape"
   inkscape:version="1.0 (4035a4fb49, 2020-05-01)"
   viewBox="0 0 32 32"
   version="1.1"
   id="svg753"
   sodipodi:docname="checked.svg">
  <metadata
     id="metadata759">
    <rdf:RDF>
      <cc:Work
         rdf:about="">
        <dc:format>image/svg+xml</dc:format>
        <dc:type
           rdf:resource="http://purl.org/dc/dcmitype/StillImage" />
      </cc:Work>
    </rdf:RDF>
  </metadata>
  <defs
     id="defs757" />
  <sodipodi:namedview
     inkscape:document-rotation="0"
     inkscape:current-layer="svg753"
     inkscape:cy="16"
     inkscape:cx="16"
     inkscape:zoom="34.072848"
     showgrid="false"
     id="namedview755"
     inkscape:window-height="480"
     inkscape:window-width="640"
     inkscape:pageshadow="2"
     inkscape:pageopacity="0"
     guidetolerance="10"
     gridtolerance="10"
     objecttolerance="10"
     borderopacity="1"
     bordercolor="#666666"
     pagecolor="#ffffff" />
  <path
     id="path751"
     d="M30.2 9.4c0 .5-.2.9-.5 1.2L16.4 23.9l-2.5 2.5c-.3.3-.8.5-1.2.5-.5 0-.9-.2-1.2-.5L9 23.9l-6.6-6.6c-.4-.4-.6-.8-.6-1.3s.2-.9.5-1.2l2.5-2.5c.3-.3.8-.5 1.2-.5.5 0 .9.2 1.2.5l5.4 5.4 12-12c.3-.3.8-.5 1.2-.5.5 0 .9.2 1.2.5l2.5 2.5c.5.3.7.7.7 1.2z"
     fill="#addb67" />
</svg>
