<?xml version="1.0" encoding="UTF-8" standalone="no"?>
<svg
   xmlns:dc="http://purl.org/dc/elements/1.1/"
   xmlns:cc="http://creativecommons.org/ns#"
   xmlns:rdf="http://www.w3.org/1999/02/22-rdf-syntax-ns#"
   xmlns:svg="http://www.w3.org/2000/svg"
   xmlns="http://www.w3.org/2000/svg"
   xmlns:sodipodi="http://sodipodi.sourceforge.net/DTD/sodipodi-0.dtd"
   xmlns:inkscape="http://www.inkscape.org/namespaces/inkscape"
   inkscape:version="1.0 (4035a4fb49, 2020-05-01)"
   viewBox="0 0 32 32"
   version="1.1"
   id="svg358"
   sodipodi:docname="configure.svg">
  <metadata
     id="metadata364">
    <rdf:RDF>
      <cc:Work
         rdf:about="">
        <dc:format>image/svg+xml</dc:format>
        <dc:type
           rdf:resource="http://purl.org/dc/dcmitype/StillImage" />
      </cc:Work>
    </rdf:RDF>
  </metadata>
  <defs
     id="defs362" />
  <sodipodi:namedview
     inkscape:document-rotation="0"
     inkscape:current-layer="svg358"
     inkscape:cy="16"
     inkscape:cx="16"
     inkscape:zoom="34.072848"
     showgrid="false"
     id="namedview360"
     inkscape:window-height="480"
     inkscape:window-width="640"
     inkscape:pageshadow="2"
     inkscape:pageopacity="0"
     guidetolerance="10"
     gridtolerance="10"
     objecttolerance="10"
     borderopacity="1"
     bordercolor="#666666"
     pagecolor="#ffffff" />
  <path
     id="path350"
     d="M28.8 18.6c0 .1 0 .1 0 0 0 .2-.1.3-.2.5.1-.1.2-.3.2-.5"
     fill="#ffffff" />
  <path
     id="path352"
     d="M26.4 17s.1 0 0 0c.1 0 0 0 0 0z"
     fill="#733737" />
  <path
     id="path354"
     d="M26.5 17s-.1 0 0 0c-.1 0 0 0 0 0"
     fill="#ffffff" />
  <path
     id="path356"
     d="M26.7 14.5v3.1c0 .1 0 .2-.1.3-.1.1-.2.2-.3.2l-2.6.4c-.2.5-.4.9-.5 1.3.3.5.8 1.1 1.5 1.9.1.1.1.2.1.3 0 .1 0 .2-.1.3-.3.3-.7.8-1.4 1.5s-1.1 1-1.3 1c-.1 0-.2 0-.4-.1l-1.9-1.5c-.4.2-.8.4-1.3.5-.1 1.3-.3 2.1-.4 2.6-.1.3-.2.4-.5.4h-3.1c-.1 0-.2 0-.3-.1s-.2-.2-.2-.3l-.4-2.6c-.5-.1-.9-.3-1.3-.5l-2 1.5c-.1.1-.2.1-.3.1-.1 0-.2-.1-.3-.2-1.2-1.1-1.9-1.8-2.3-2.3-.1-.1-.1-.2-.1-.3 0-.1 0-.2.1-.3.1-.2.4-.5.7-.9.3-.4.6-.8.8-1-.3-.5-.4-.9-.6-1.4L5.7 18c-.1 0-.2-.1-.3-.2-.1-.1-.1-.2-.1-.3v-3.1c0-.1 0-.2.1-.3.1-.1.2-.2.3-.2l2.6-.4c.1-.4.3-.9.5-1.3-.4-.5-.9-1.2-1.5-1.9-.1-.1-.1-.2-.1-.3 0-.1 0-.2.1-.3.2-.4.7-.9 1.4-1.5.7-.7 1.1-1 1.3-1 .1 0 .2 0 .4.1l1.9 1.5c.4-.2.8-.4 1.3-.5.1-1.3.3-2.1.4-2.6.1-.3.2-.4.5-.4h3.1c.1 0 .2 0 .3.1.1.1.1.2.2.3l.4 2.6c.5.1.9.3 1.3.5l2-1.5c.1-.1.2-.1.3-.1.1 0 .2 0 .3.1 1.2 1.1 2 1.9 2.3 2.4.1.1.1.2.1.3 0 .1 0 .2-.1.3-.1.2-.4.5-.7.9-.3.4-.6.8-.8 1 .2.5.4.9.6 1.4l2.6.4c.1 0 .2.1.3.2v.3zm-8.2 4c.7-.7 1-1.5 1-2.5s-.3-1.8-1-2.5-1.5-1-2.5-1-1.8.3-2.5 1-1 1.5-1 2.5.3 1.8 1 2.5 1.5 1 2.5 1 1.8-.3 2.5-1z"
     fill="#82aaff" />
</svg>
