<?xml version="1.0" encoding="UTF-8" standalone="no"?>
<svg
   xmlns:dc="http://purl.org/dc/elements/1.1/"
   xmlns:cc="http://creativecommons.org/ns#"
   xmlns:rdf="http://www.w3.org/1999/02/22-rdf-syntax-ns#"
   xmlns:svg="http://www.w3.org/2000/svg"
   xmlns="http://www.w3.org/2000/svg"
   xmlns:sodipodi="http://sodipodi.sourceforge.net/DTD/sodipodi-0.dtd"
   xmlns:inkscape="http://www.inkscape.org/namespaces/inkscape"
   inkscape:version="1.0 (4035a4fb49, 2020-05-01)"
   sodipodi:docname="dialog-cancel.svg"
   id="svg55"
   version="1.1"
   viewBox="0 0 32 32">
  <metadata
     id="metadata61">
    <rdf:RDF>
      <cc:Work
         rdf:about="">
        <dc:format>image/svg+xml</dc:format>
        <dc:type
           rdf:resource="http://purl.org/dc/dcmitype/StillImage" />
      </cc:Work>
    </rdf:RDF>
  </metadata>
  <defs
     id="defs59" />
  <sodipodi:namedview
     inkscape:document-rotation="0"
     inkscape:current-layer="svg55"
     inkscape:cy="16"
     inkscape:cx="16"
     inkscape:zoom="34.072848"
     showgrid="false"
     id="namedview57"
     inkscape:window-height="480"
     inkscape:window-width="640"
     inkscape:pageshadow="2"
     inkscape:pageopacity="0"
     guidetolerance="10"
     gridtolerance="10"
     objecttolerance="10"
     borderopacity="1"
     bordercolor="#666666"
     pagecolor="#ffffff" />
  <path
     id="path53"
     d="M28.1 10.8c.7 1.6 1 3.3 1 5.1s-.3 3.5-1 5.2c-.7 1.6-1.6 3-2.8 4.2-1.2 1.2-2.6 2.1-4.2 2.8-1.6.7-3.3 1-5.1 1-1.8 0-3.5-.3-5.1-1-1.6-.7-3-1.6-4.2-2.8-1.2-1.2-2.1-2.6-2.8-4.2-.7-1.6-1-3.4-1-5.2s.3-3.5 1-5.1c.7-1.6 1.6-3 2.8-4.2s2.6-2.1 4.2-2.8c1.6-.7 3.3-1 5.1-1 1.8 0 3.5.3 5.1 1 1.6.7 3 1.6 4.2 2.8s2.1 2.6 2.8 4.2zM8.2 21.1l13-13c-1.5-1-3.3-1.6-5.2-1.6-1.7 0-3.3.4-4.7 1.3-1.4.8-2.6 2-3.4 3.4-.8 1.4-1.3 3-1.3 4.7.1 1.9.6 3.7 1.6 5.2zM25.3 16c0-1.8-.5-3.5-1.5-5.1l-13 12.9c1.6 1 3.3 1.5 5.1 1.5 1.3 0 2.5-.2 3.6-.7 1.2-.5 2.1-1.2 3-2s1.5-1.8 2-3c.6-1.1.8-2.3.8-3.6z"
     fill="#ff6363" />
</svg>
