<?xml version="1.0" encoding="UTF-8" standalone="no"?>
<svg
   xmlns:dc="http://purl.org/dc/elements/1.1/"
   xmlns:cc="http://creativecommons.org/ns#"
   xmlns:rdf="http://www.w3.org/1999/02/22-rdf-syntax-ns#"
   xmlns:svg="http://www.w3.org/2000/svg"
   xmlns="http://www.w3.org/2000/svg"
   xmlns:sodipodi="http://sodipodi.sourceforge.net/DTD/sodipodi-0.dtd"
   xmlns:inkscape="http://www.inkscape.org/namespaces/inkscape"
   inkscape:version="1.0 (4035a4fb49, 2020-05-01)"
   viewBox="0 0 32 32"
   version="1.1"
   id="svg670"
   sodipodi:docname="document-save.svg">
  <metadata
     id="metadata676">
    <rdf:RDF>
      <cc:Work
         rdf:about="">
        <dc:format>image/svg+xml</dc:format>
        <dc:type
           rdf:resource="http://purl.org/dc/dcmitype/StillImage" />
      </cc:Work>
    </rdf:RDF>
  </metadata>
  <defs
     id="defs674" />
  <sodipodi:namedview
     inkscape:document-rotation="0"
     inkscape:current-layer="svg670"
     inkscape:cy="16"
     inkscape:cx="16"
     inkscape:zoom="34.072848"
     showgrid="false"
     id="namedview672"
     inkscape:window-height="480"
     inkscape:window-width="640"
     inkscape:pageshadow="2"
     inkscape:pageopacity="0"
     guidetolerance="10"
     gridtolerance="10"
     objecttolerance="10"
     borderopacity="1"
     bordercolor="#666666"
     pagecolor="#ffffff" />
  <path
     id="path668"
     d="M28.3 11.9v14.9c0 .4-.1.8-.4 1.1-.3.3-.7.4-1.1.4H5.2c-.4 0-.8-.1-1.1-.4-.3-.3-.4-.7-.4-1.1V5.2c0-.4.1-.8.4-1.1.3-.3.7-.4 1.1-.4h14.9c.4 0 .9.1 1.4.3.5.2.9.5 1.2.8l4.5 4.5c.3.3.6.7.8 1.2.2.5.3 1 .3 1.4zm-4.1 14.3h2.1V11.9c0-.1-.1-.4-.2-.6-.1-.3-.2-.4-.3-.6l-4.5-4.5c-.1-.1-.3-.2-.6-.3-.3-.1-.5-.2-.6-.2v6.7c0 .4-.1.8-.4 1.1-.3.3-.7.5-1.1.5H9.3c-.4 0-.8-.1-1.1-.4-.3-.3-.4-.7-.4-1.1V5.8h-2v20.5h2v-6.7c0-.4.1-.8.4-1.1.3-.3.7-.5 1.1-.5h13.3c.4 0 .8.1 1.1.4.3.3.4.7.4 1.1v6.7zm-14.4 0h12.3v-6.1H9.8v6.1zM18 11.4V6.3c0-.2 0-.3-.1-.4-.1-.1-.2-.2-.4-.2h-3.1c-.1 0-.3.1-.4.2v5.5c0 .1.1.3.2.4.1.1.2.2.4.2h3.1c.1 0 .3-.1.4-.2-.1-.2-.1-.3-.1-.4z"
     fill="#82aaff" />
</svg>
