<?xml version="1.0" encoding="UTF-8" standalone="no"?>
<svg
   xmlns:dc="http://purl.org/dc/elements/1.1/"
   xmlns:cc="http://creativecommons.org/ns#"
   xmlns:rdf="http://www.w3.org/1999/02/22-rdf-syntax-ns#"
   xmlns:svg="http://www.w3.org/2000/svg"
   xmlns="http://www.w3.org/2000/svg"
   xmlns:sodipodi="http://sodipodi.sourceforge.net/DTD/sodipodi-0.dtd"
   xmlns:inkscape="http://www.inkscape.org/namespaces/inkscape"
   inkscape:version="1.0 (4035a4fb49, 2020-05-01)"
   viewBox="0 0 32 32"
   version="1.1"
   id="svg643"
   sodipodi:docname="document-encrypt.svg">
  <metadata
     id="metadata649">
    <rdf:RDF>
      <cc:Work
         rdf:about="">
        <dc:format>image/svg+xml</dc:format>
        <dc:type
           rdf:resource="http://purl.org/dc/dcmitype/StillImage" />
      </cc:Work>
    </rdf:RDF>
  </metadata>
  <defs
     id="defs647" />
  <sodipodi:namedview
     inkscape:document-rotation="0"
     inkscape:current-layer="svg643"
     inkscape:cy="16"
     inkscape:cx="16"
     inkscape:zoom="34.072848"
     showgrid="false"
     id="namedview645"
     inkscape:window-height="480"
     inkscape:window-width="640"
     inkscape:pageshadow="2"
     inkscape:pageopacity="0"
     guidetolerance="10"
     gridtolerance="10"
     objecttolerance="10"
     borderopacity="1"
     bordercolor="#666666"
     pagecolor="#ffffff" />
  <path
     id="path641"
     d="M27.1 16.6v11.1c0 .5-.2 1-.5 1.3-.4.4-.8.5-1.3.5H6.7c-.5 0-1-.2-1.3-.5-.4-.4-.5-.8-.5-1.3V16.6c0-.5.2-1 .5-1.3.4-.4.8-.5 1.3-.5h.6v-3.7c0-2.4.8-4.4 2.5-6.1 1.7-1.7 3.7-2.5 6.1-2.5 2.4 0 4.4.8 6.1 2.5 1.7 1.7 2.5 3.7 2.5 6.1v3.7h.6c.5 0 1 .2 1.3.5.5.4.7.8.7 1.3zm-16-1.8H21v-3.7c0-1.4-.5-2.5-1.4-3.5S17.4 6.1 16 6.1s-2.5.5-3.5 1.4c-1 1-1.4 2.1-1.4 3.5v3.8z"
     fill="#f78c6c" />
</svg>
