<?xml version="1.0" encoding="UTF-8" standalone="no"?>
<svg
   xmlns:dc="http://purl.org/dc/elements/1.1/"
   xmlns:cc="http://creativecommons.org/ns#"
   xmlns:rdf="http://www.w3.org/1999/02/22-rdf-syntax-ns#"
   xmlns:svg="http://www.w3.org/2000/svg"
   xmlns="http://www.w3.org/2000/svg"
   xmlns:sodipodi="http://sodipodi.sourceforge.net/DTD/sodipodi-0.dtd"
   xmlns:inkscape="http://www.inkscape.org/namespaces/inkscape"
   inkscape:version="1.0 (4035a4fb49, 2020-05-01)"
   viewBox="984 984 32 32"
   version="1.1"
   id="svg533"
   sodipodi:docname="document-import.svg">
  <metadata
     id="metadata539">
    <rdf:RDF>
      <cc:Work
         rdf:about="">
        <dc:format>image/svg+xml</dc:format>
        <dc:type
           rdf:resource="http://purl.org/dc/dcmitype/StillImage" />
      </cc:Work>
    </rdf:RDF>
  </metadata>
  <defs
     id="defs537" />
  <sodipodi:namedview
     inkscape:document-rotation="0"
     inkscape:current-layer="svg533"
     inkscape:cy="16"
     inkscape:cx="16"
     inkscape:zoom="34.072848"
     showgrid="false"
     id="namedview535"
     inkscape:window-height="480"
     inkscape:window-width="640"
     inkscape:pageshadow="2"
     inkscape:pageopacity="0"
     guidetolerance="10"
     gridtolerance="10"
     objecttolerance="10"
     borderopacity="1"
     bordercolor="#666666"
     pagecolor="#ffffff" />
  <path
     id="path527"
     d="M-43.8-437.5H2700v2625H-43.8z"
     fill="none" />
  <path
     id="path529"
     d="M1012.2 993.1c.2.3.5.6.6 1 .2.4.3.8.3 1.2v15.4c0 .4-.1.7-.4.9-.3.2-.6.4-.9.4h-18c-.4 0-.7-.1-.9-.4-.2-.3-.4-.6-.4-.9v-21.4c0-.4.1-.7.4-.9.3-.2.6-.4.9-.4h12c.4 0 .8.1 1.2.3.4.2.8.4 1 .6l4.2 4.2zm-.8 17.2v-13.7h-5.6c-.4 0-.7-.1-.9-.4-.3-.2-.4-.6-.4-.9v-5.6h-10.3v20.6h17.2zm-5.2-20.5v5h5c-.1-.3-.2-.4-.3-.5l-4.2-4.2c0-.1-.2-.2-.5-.3z"
     fill="#82aaff" />
  <path
     id="path531"
     d="M1005.7 1001.4c0 .3-.1.6-.3.9l-6.1 6.1c-.2.2-.5.3-.9.3-.3 0-.6-.1-.8-.3l-.7-.7c-.2-.2-.4-.5-.4-.9s.1-.6.4-.9l2.8-2.8H988c-.3 0-.6-.1-.8-.4-.2-.2-.3-.5-.3-.9v-1.2c0-.3.1-.6.3-.9.2-.2.5-.4.8-.4h11.6l-2.8-2.8c-.2-.2-.4-.5-.4-.8 0-.3.1-.6.4-.8l.7-.7c.2-.2.5-.4.8-.4.3 0 .6.1.9.4l6.1 6.1c.3.5.4.8.4 1.1z"
     fill="#82aaff" />
</svg>
