<?xml version="1.0" encoding="UTF-8" standalone="no"?>
<svg
   xmlns:dc="http://purl.org/dc/elements/1.1/"
   xmlns:cc="http://creativecommons.org/ns#"
   xmlns:rdf="http://www.w3.org/1999/02/22-rdf-syntax-ns#"
   xmlns:svg="http://www.w3.org/2000/svg"
   xmlns="http://www.w3.org/2000/svg"
   xmlns:sodipodi="http://sodipodi.sourceforge.net/DTD/sodipodi-0.dtd"
   xmlns:inkscape="http://www.inkscape.org/namespaces/inkscape"
   inkscape:version="1.0 (4035a4fb49, 2020-05-01)"
   viewBox="984 984 32 32"
   version="1.1"
   id="svg627"
   sodipodi:docname="document-properties.svg">
  <metadata
     id="metadata633">
    <rdf:RDF>
      <cc:Work
         rdf:about="">
        <dc:format>image/svg+xml</dc:format>
        <dc:type
           rdf:resource="http://purl.org/dc/dcmitype/StillImage" />
      </cc:Work>
    </rdf:RDF>
  </metadata>
  <defs
     id="defs631" />
  <sodipodi:namedview
     inkscape:document-rotation="0"
     inkscape:current-layer="svg627"
     inkscape:cy="16"
     inkscape:cx="16"
     inkscape:zoom="34.072848"
     showgrid="false"
     id="namedview629"
     inkscape:window-height="480"
     inkscape:window-width="640"
     inkscape:pageshadow="2"
     inkscape:pageopacity="0"
     guidetolerance="10"
     gridtolerance="10"
     objecttolerance="10"
     borderopacity="1"
     bordercolor="#666666"
     pagecolor="#ffffff" />
  <path
     id="path621"
     d="M-43.8-437.5H2700v2625H-43.8z"
     fill="none" />
  <path
     id="path623"
     d="M999.7 1005.7v2c0 .1 0 .1-.1.2 0 .1-.1.1-.2.1l-1.7.2c-.1.3-.2.6-.3.8.2.3.5.7 1 1.2.1.1.1.1.1.2s0 .1-.1.2c-.2.2-.5.5-.9 1-.4.4-.7.6-.8.6-.1 0-.1 0-.2-.1l-1.2-1c-.3.1-.5.2-.8.3-.1.8-.2 1.4-.3 1.7 0 .2-.1.3-.3.3h-2c-.1 0-.2 0-.2-.1-.1-.1-.1-.1-.1-.2l-.3-1.6c-.3-.1-.6-.2-.8-.3l-1.3 1c-.1.1-.1.1-.2.1s-.2 0-.2-.1c-.8-.7-1.2-1.2-1.5-1.5 0-.1-.1-.1-.1-.2s0-.1.1-.2.2-.3.5-.6c.2-.3.4-.5.5-.6-.2-.3-.3-.6-.4-.9l-1.6-.2c-.1 0-.1 0-.2-.1 0-.1-.1-.1-.1-.2v-2c0-.1 0-.1.1-.2 0-.1.1-.1.2-.1l1.7-.2c.1-.3.2-.5.3-.8-.2-.3-.6-.8-1-1.2-.1-.1-.1-.1-.1-.2s0-.1.1-.2c.2-.2.4-.5.9-1 .4-.4.7-.6.8-.6.1 0 .2 0 .2.1l1.2 1c.3-.1.5-.2.8-.3.1-.8.2-1.4.3-1.7 0-.2.1-.3.3-.3h2c.1 0 .2 0 .2.1.1.1.1.1.1.2l.3 1.6c.3.1.6.2.8.3l1.3-1c.1-.1.1-.1.2-.1s.2 0 .2.1c.8.7 1.3 1.2 1.5 1.5 0 0 .1.1.1.2s0 .1-.1.2-.2.3-.5.6c-.2.3-.4.5-.5.6.2.3.3.6.4.9l1.6.2c.1 0 .1 0 .2.1.1 0 .1.1.1.2zm-5.2 2.6c.4-.4.7-1 .7-1.6 0-.6-.2-1.2-.7-1.6-.4-.4-1-.7-1.6-.7-.6 0-1.2.2-1.6.7-.4.4-.7 1-.7 1.6 0 .6.2 1.2.7 1.6.4.4 1 .7 1.6.7.6-.1 1.1-.3 1.6-.7z"
     fill="#82aaff" />
  <path
     id="path625"
     d="M1013.7 992.6c-.2-.4-.4-.8-.6-1l-4.2-4.2c-.3-.3-.6-.5-1-.6-.4-.2-.8-.3-1.2-.3h-12c-.4 0-.7.1-.9.4-.2.3-.4.6-.4.9v15.7h1.7v-15.2h10.3v5.6c0 .4.1.7.4.9.3.3.6.4.9.4h5.6v13.7h-15.9v1.7h16.3c.4 0 .7-.1.9-.4.2-.3.4-.6.4-.9v-15.4c0-.5-.1-.9-.3-1.3zm-6.6.8v-5c.3.1.4.2.5.3l4.2 4.2c.1.1.2.3.3.5h-5z"
     fill="#82aaff" />
</svg>
