<?xml version="1.0" encoding="UTF-8" standalone="no"?>
<svg
   xmlns:dc="http://purl.org/dc/elements/1.1/"
   xmlns:cc="http://creativecommons.org/ns#"
   xmlns:rdf="http://www.w3.org/1999/02/22-rdf-syntax-ns#"
   xmlns:svg="http://www.w3.org/2000/svg"
   xmlns="http://www.w3.org/2000/svg"
   xmlns:sodipodi="http://sodipodi.sourceforge.net/DTD/sodipodi-0.dtd"
   xmlns:inkscape="http://www.inkscape.org/namespaces/inkscape"
   inkscape:version="1.0 (4035a4fb49, 2020-05-01)"
   viewBox="0 0 32 32"
   version="1.1"
   id="svg286"
   sodipodi:docname="edit-delete.svg">
  <metadata
     id="metadata292">
    <rdf:RDF>
      <cc:Work
         rdf:about="">
        <dc:format>image/svg+xml</dc:format>
        <dc:type
           rdf:resource="http://purl.org/dc/dcmitype/StillImage" />
      </cc:Work>
    </rdf:RDF>
  </metadata>
  <defs
     id="defs290" />
  <sodipodi:namedview
     inkscape:document-rotation="0"
     inkscape:current-layer="svg286"
     inkscape:cy="16"
     inkscape:cx="16"
     inkscape:zoom="34.072848"
     showgrid="false"
     id="namedview288"
     inkscape:window-height="480"
     inkscape:window-width="640"
     inkscape:pageshadow="2"
     inkscape:pageopacity="0"
     guidetolerance="10"
     gridtolerance="10"
     objecttolerance="10"
     borderopacity="1"
     bordercolor="#666666"
     pagecolor="#ffffff" />
  <path
     id="path284"
     d="M29.6 24.2c0 .6-.2 1.1-.6 1.6l-3.1 3.1c-.4.4-.9.6-1.6.6-.6 0-1.1-.2-1.6-.6L16 22.1l-6.7 6.7c-.4.4-.9.6-1.6.6-.6 0-1.1-.2-1.6-.6L3 25.7c-.4-.4-.6-.9-.6-1.6s.2-1.1.6-1.6l6.7-6.7-6.6-6.6c-.5-.4-.7-1-.7-1.6 0-.6.2-1.1.6-1.6l3.2-3c.4-.4.9-.6 1.6-.6.6 0 1.1.2 1.6.6L16 9.7 22.7 3c.4-.4.9-.6 1.6-.6.6 0 1.1.2 1.6.6L29 6.1c.4.4.6.9.6 1.6 0 .6-.2 1.1-.6 1.6L22.3 16l6.7 6.7c.4.4.6.9.6 1.5z"
     fill="#ff6363" />
</svg>
