<?xml version="1.0" encoding="UTF-8" standalone="no"?>
<svg
   xmlns:dc="http://purl.org/dc/elements/1.1/"
   xmlns:cc="http://creativecommons.org/ns#"
   xmlns:rdf="http://www.w3.org/1999/02/22-rdf-syntax-ns#"
   xmlns:svg="http://www.w3.org/2000/svg"
   xmlns="http://www.w3.org/2000/svg"
   xmlns:sodipodi="http://sodipodi.sourceforge.net/DTD/sodipodi-0.dtd"
   xmlns:inkscape="http://www.inkscape.org/namespaces/inkscape"
   inkscape:version="1.0 (4035a4fb49, 2020-05-01)"
   viewBox="0 0 32 32"
   version="1.1"
   id="svg1121"
   sodipodi:docname="edit-find.svg">
  <metadata
     id="metadata1127">
    <rdf:RDF>
      <cc:Work
         rdf:about="">
        <dc:format>image/svg+xml</dc:format>
        <dc:type
           rdf:resource="http://purl.org/dc/dcmitype/StillImage" />
      </cc:Work>
    </rdf:RDF>
  </metadata>
  <defs
     id="defs1125" />
  <sodipodi:namedview
     inkscape:document-rotation="0"
     inkscape:current-layer="svg1121"
     inkscape:cy="16"
     inkscape:cx="16"
     inkscape:zoom="34.072848"
     showgrid="false"
     id="namedview1123"
     inkscape:window-height="480"
     inkscape:window-width="640"
     inkscape:pageshadow="2"
     inkscape:pageopacity="0"
     guidetolerance="10"
     gridtolerance="10"
     objecttolerance="10"
     borderopacity="1"
     bordercolor="#666666"
     pagecolor="#ffffff" />
  <path
     id="path1113"
     d="M28.8 18.6c0 .1 0 .1 0 0 0 .2-.1.3-.2.5.1-.1.2-.3.2-.5"
     fill="#ffffff" />
  <path
     id="path1115"
     d="M26.4 17s.1 0 0 0c.1 0 0 0 0 0z"
     fill="#733737" />
  <path
     id="path1117"
     d="M26.5 17s-.1 0 0 0c-.1 0 0 0 0 0"
     fill="#ffffff" />
  <path
     id="path1119"
     d="M27.6 25.8c0 .5-.2.9-.5 1.3-.4.4-.8.5-1.3.5s-.9-.2-1.3-.5l-4.8-4.8C18 23.5 16.2 24 14.1 24c-1.3 0-2.6-.3-3.8-.8s-2.2-1.2-3-2-1.6-2-2.1-3.2-.8-2.5-.8-3.8.3-2.6.8-3.8c.5-1.2 1.2-2.3 2.1-3.1s1.9-1.6 3.1-2.1 2.5-.8 3.8-.8 2.6.3 3.8.8c1.2.5 2.3 1.2 3.1 2.1s1.6 1.9 2.1 3.1c.5 1.2.8 2.5.8 3.8 0 2-.6 3.9-1.7 5.6l4.8 4.8c.3.3.5.7.5 1.2zm-9-7.2c1.2-1.2 1.8-2.7 1.8-4.4s-.6-3.2-1.8-4.4S15.9 8 14.2 8s-3.2.6-4.4 1.8C8.6 11 8 12.5 8 14.2s.6 3.2 1.8 4.4c1.2 1.2 2.7 1.8 4.4 1.8s3.2-.5 4.4-1.8z"
     fill="#82aaff" />
</svg>
