<?xml version="1.0" encoding="UTF-8" standalone="no"?>
<svg
   xmlns:dc="http://purl.org/dc/elements/1.1/"
   xmlns:cc="http://creativecommons.org/ns#"
   xmlns:rdf="http://www.w3.org/1999/02/22-rdf-syntax-ns#"
   xmlns:svg="http://www.w3.org/2000/svg"
   xmlns="http://www.w3.org/2000/svg"
   xmlns:sodipodi="http://sodipodi.sourceforge.net/DTD/sodipodi-0.dtd"
   xmlns:inkscape="http://www.inkscape.org/namespaces/inkscape"
   inkscape:version="1.0 (4035a4fb49, 2020-05-01)"
   viewBox="984 984 32 32"
   version="1.1"
   id="svg156"
   sodipodi:docname="edit-clear.svg">
  <metadata
     id="metadata162">
    <rdf:RDF>
      <cc:Work
         rdf:about="">
        <dc:format>image/svg+xml</dc:format>
        <dc:type
           rdf:resource="http://purl.org/dc/dcmitype/StillImage" />
      </cc:Work>
    </rdf:RDF>
  </metadata>
  <defs
     id="defs160" />
  <sodipodi:namedview
     pagecolor="#ffffff"
     bordercolor="#666666"
     borderopacity="1"
     objecttolerance="10"
     gridtolerance="10"
     guidetolerance="10"
     inkscape:pageopacity="0"
     inkscape:pageshadow="2"
     inkscape:window-width="640"
     inkscape:window-height="480"
     id="namedview158"
     showgrid="false"
     inkscape:zoom="50.545152"
     inkscape:cx="16"
     inkscape:cy="16"
     inkscape:current-layer="svg156"
     inkscape:document-rotation="0" />
  <path
     fill="#82aaff"
     d="M998.8 999c0 .3-.2.5-.5.5h-.8c-.3 0-.5-.2-.5-.5v-12.5c0-.3.2-.5.5-.5h.8c.3 0 .5.2.5.5V999zm.7 2.4c.3 0 .4-.2.2-.4l-.5-.7c-.2-.2-.5-.4-.8-.4h-1.2c-.3 0-.6.2-.8.4l-.3.7c-.2.2-.1.4.2.4h3.2z"
     id="path146" />
  <path
     fill="#ff6363"
     d="M1007.1 1010.5c0 .2-.1.3-.2.5l-1 1c-.1.1-.3.2-.5.2s-.3-.1-.5-.2l-2.1-2.2-2.2 2.1c-.1.1-.3.2-.5.2s-.3-.1-.5-.2l-1-1c-.1-.1-.2-.3-.2-.5s.1-.3.2-.5l2.1-2.1-2.1-2.1c-.2-.1-.2-.3-.2-.5s.1-.3.2-.5l1-.9c.1-.1.3-.2.5-.2s.3.1.5.2l2.2 2.1 2.1-2.1c.1-.1.3-.2.5-.2s.3.1.5.2l1 1c.1.1.2.3.2.5s-.1.3-.2.5l-2.2 2.1 2.1 2.1c.2.1.3.3.3.5z"
     id="path148" />
  <path
     fill="none"
     d="M1006.9 1005.8c.1-.2.2-.3.2-.5 0 .2-.1.3-.2.5z"
     id="path150" />
  <path
     fill="#ff6363"
     d="M1004.7 1003.7c.1-.1.1-.1 0 0 .1-.1.1-.1 0 0zm0 4.2l2.2-2.1c.1-.2.2-.4.2-.5 0-.2-.1-.4-.2-.4l-1-1c-.2-.1-.3-.2-.5-.2s-.4 0-.5.2l-2.1 2.1-2.2-2.1c-.2-.1-.3-.2-.5-.2s-.4.1-.5.2l-1 .9c-.1.2-.2.3-.2.5s0 .4.2.5l2.1 2.1-2.1 2.1c-.1.2-.2.3-.2.5s.1.4.2.5l1 1c.2.1.3.2.5.2s.4-.1.5-.2l2.2-2.1 2 2.2c.2.1.3.2.5.2s.4-.1.5-.2l1-1c.1-.2.2-.3.2-.5s-.1-.4-.2-.5l-2.1-2.2z"
     id="path152" />
  <path
     fill="#82aaff"
     d="M1000.9 1012c-.2.2-.4.3-.7.3s-.5-.1-.7-.3l-1-1c-.2-.2-.3-.4-.3-.7s.1-.5.3-.7l1.9-1.9-1.6-1.6h-3.7c-.3 0-.6.2-.6.5l-1.6 6.8c-.1.3.1.5.4.5h9.4c.3 0 .4-.2.4-.5l-.7-3-1.5 1.6zm-2.7-6.8c0-.3.1-.5.3-.7l1-.9c.2-.2.4-.3.7-.3.2 0 .3 0 .5.1l-.3-1.1c-.1-.3-.3-.5-.6-.5H996c-.3 0-.6.2-.6.5l-.7 3c-.1.3.1.5.4.5h3.3c-.1-.1-.2-.3-.2-.6z"
     id="path154" />
</svg>
