<?xml version="1.0" encoding="UTF-8" standalone="no"?>
<svg
   xmlns:dc="http://purl.org/dc/elements/1.1/"
   xmlns:cc="http://creativecommons.org/ns#"
   xmlns:rdf="http://www.w3.org/1999/02/22-rdf-syntax-ns#"
   xmlns:svg="http://www.w3.org/2000/svg"
   xmlns="http://www.w3.org/2000/svg"
   xmlns:sodipodi="http://sodipodi.sourceforge.net/DTD/sodipodi-0.dtd"
   xmlns:inkscape="http://www.inkscape.org/namespaces/inkscape"
   inkscape:version="1.0 (4035a4fb49, 2020-05-01)"
   viewBox="0 0 32 32"
   version="1.1"
   id="svg175"
   sodipodi:docname="edit-find-user.svg">
  <metadata
     id="metadata181">
    <rdf:RDF>
      <cc:Work
         rdf:about="">
        <dc:format>image/svg+xml</dc:format>
        <dc:type
           rdf:resource="http://purl.org/dc/dcmitype/StillImage" />
      </cc:Work>
    </rdf:RDF>
  </metadata>
  <defs
     id="defs179" />
  <sodipodi:namedview
     pagecolor="#ffffff"
     bordercolor="#666666"
     borderopacity="1"
     objecttolerance="10"
     gridtolerance="10"
     guidetolerance="10"
     inkscape:pageopacity="0"
     inkscape:pageshadow="2"
     inkscape:window-width="640"
     inkscape:window-height="480"
     id="namedview177"
     showgrid="false"
     inkscape:zoom="50.545152"
     inkscape:cx="16"
     inkscape:cy="16"
     inkscape:current-layer="svg175"
     inkscape:document-rotation="0" />
  <path
     fill="#fdf6e3"
     d="M28.8 18.6c0 .1 0 .1 0 0 0 .2-.1.3-.2.5.1-.1.2-.3.2-.5"
     id="path159" />
  <path
     fill="#733737"
     d="M26.4 17s.1 0 0 0c.1 0 0 0 0 0z"
     id="path161" />
  <path
     fill="#fdf6e3"
     d="M26.5 17s-.1 0 0 0c-.1 0 0 0 0 0"
     id="path163" />
  <path
     fill="#82aaff"
     d="M27.1 29.5c-.4 0-.7-.1-.9-.4l-2.6-2.6c-.9.6-2 .9-3.1.9-.8 0-1.6-.2-2.3-.5-.7-.3-1.3-.7-1.9-1.2-.5-.5-.9-1.1-1.2-1.9-.3-.7-.5-1.5-.5-2.3s.2-1.6.5-2.3c.3-.7.7-1.3 1.2-1.9.5-.5 1.1-.9 1.9-1.2.7-.3 1.5-.5 2.3-.5.8 0 1.6.2 2.3.5.7.3 1.3.7 1.9 1.2.5.5.9 1.1 1.2 1.9.3.7.5 1.5.5 2.3 0 1.1-.3 2.2-.9 3.1l2.6 2.6c.2.2.4.5.4.9 0 .3-.1.6-.4.9-.3.4-.6.5-1 .5zm-6.6-11.2c-.9 0-1.7.3-2.3 1s-1 1.4-1 2.3c0 .9.3 1.7 1 2.3.7.7 1.4 1 2.3 1 .9 0 1.7-.3 2.3-1 .7-.7 1-1.4 1-2.3 0-.9-.3-1.7-1-2.3s-1.4-1-2.3-1z"
     id="path165" />
  <path
     fill="#fdf6e3"
     d="M20.5 16.1c.8 0 1.5.1 2.2.4.7.3 1.3.7 1.8 1.2s.9 1.1 1.2 1.8c.3.7.4 1.4.4 2.2 0 1.2-.3 2.2-1 3.2l2.7 2.7c.2.2.3.4.3.7 0 .3-.1.5-.3.7-.2.2-.4.3-.7.3-.3 0-.5-.1-.7-.3l-2.7-2.7c-.9.7-2 1-3.2 1-.8 0-1.5-.1-2.2-.4-.7-.3-1.3-.7-1.8-1.2s-.9-1.1-1.2-1.8c-.3-.7-.4-1.4-.4-2.2 0-.8.1-1.5.4-2.2.3-.7.7-1.3 1.2-1.8s1.1-.9 1.8-1.2c.7-.3 1.5-.4 2.2-.4m0 9.1c1 0 1.8-.3 2.5-1s1-1.5 1-2.5-.3-1.8-1-2.5-1.5-1-2.5-1-1.8.3-2.5 1-1 1.5-1 2.5.3 1.8 1 2.5 1.5 1 2.5 1m0-9.6c-.8 0-1.6.2-2.4.5-.7.3-1.4.8-1.9 1.3s-1 1.2-1.3 1.9c-.3.8-.5 1.5-.5 2.4 0 .8.2 1.6.5 2.4.3.7.8 1.4 1.3 1.9s1.2 1 1.9 1.3c.8.3 1.5.5 2.4.5 1.1 0 2.2-.3 3.1-.8l2.4 2.4c.3.3.6.4 1.1.4.4 0 .8-.2 1.1-.4.3-.3.4-.7.4-1.1 0-.4-.2-.8-.4-1.1l-2.4-2.4c.6-.9.8-2 .8-3.1 0-.8-.2-1.6-.5-2.4-.3-.7-.8-1.4-1.3-1.9s-1.2-1-1.9-1.3c-.8-.4-1.6-.5-2.4-.5zm0 9.1c-.8 0-1.6-.3-2.2-.9-.6-.6-.9-1.3-.9-2.2 0-.8.3-1.6.9-2.2.6-.6 1.3-.9 2.2-.9.8 0 1.6.3 2.2.9.6.6.9 1.3.9 2.2s-.3 1.6-.9 2.2c-.6.6-1.3.9-2.2.9z"
     id="path167" />
  <g
     fill="#82aaff"
     id="g173">
    <path
       d="M12.9 14.8c1.5 0 2.7-.5 3.8-1.6 1-1 1.6-2.3 1.6-3.8s-.5-2.7-1.6-3.8c-1-1-2.3-1.6-3.8-1.6s-2.7.5-3.8 1.6-1.6 2.3-1.6 3.8.5 2.7 1.6 3.8 2.3 1.6 3.8 1.6z"
       id="path169" />
    <path
       d="M14.9 24c-.3-.8-.5-1.5-.5-2.4 0-.8.2-1.6.5-2.4.3-.7.8-1.4 1.3-1.9s1.2-1 1.9-1.3c.8-.3 1.5-.5 2.4-.5h.7c-.2-.3-.4-.5-.6-.7-.3-.3-.7-.6-1.2-.7-.5-.2-1-.3-1.6-.3-.1 0-.3.1-.6.3-.3.2-.7.4-1 .7-.4.2-.9.5-1.5.7-.6.2-1.2.3-1.9.3s-1.2-.1-1.9-.3-1.1-.4-1.5-.7c-.4-.2-.7-.5-1-.7-.2-.1-.4-.2-.5-.2-.6 0-1.1.1-1.6.3s-.9.4-1.2.7-.6.7-.8 1.1c-.3.4-.5.9-.6 1.4-.1.5-.3 1-.4 1.5-.1.5-.2 1.1-.2 1.5v1.4c0 1.1.3 2 1 2.6.7.6 1.6 1 2.7 1h9c-.3-.4-.7-.8-.9-1.4z"
       id="path171" />
  </g>
</svg>
