<?xml version="1.0" encoding="UTF-8" standalone="no"?>
<svg
   xmlns:dc="http://purl.org/dc/elements/1.1/"
   xmlns:cc="http://creativecommons.org/ns#"
   xmlns:rdf="http://www.w3.org/1999/02/22-rdf-syntax-ns#"
   xmlns:svg="http://www.w3.org/2000/svg"
   xmlns="http://www.w3.org/2000/svg"
   xmlns:sodipodi="http://sodipodi.sourceforge.net/DTD/sodipodi-0.dtd"
   xmlns:inkscape="http://www.inkscape.org/namespaces/inkscape"
   inkscape:version="1.0 (4035a4fb49, 2020-05-01)"
   viewBox="0 0 32 32"
   version="1.1"
   id="svg78"
   sodipodi:docname="edit-paste.svg">
  <metadata
     id="metadata84">
    <rdf:RDF>
      <cc:Work
         rdf:about="">
        <dc:format>image/svg+xml</dc:format>
        <dc:type
           rdf:resource="http://purl.org/dc/dcmitype/StillImage" />
      </cc:Work>
    </rdf:RDF>
  </metadata>
  <defs
     id="defs82" />
  <sodipodi:namedview
     inkscape:document-rotation="0"
     inkscape:current-layer="svg78"
     inkscape:cy="16"
     inkscape:cx="16"
     inkscape:zoom="34.375"
     showgrid="false"
     id="namedview80"
     inkscape:window-height="480"
     inkscape:window-width="640"
     inkscape:pageshadow="2"
     inkscape:pageopacity="0"
     guidetolerance="10"
     gridtolerance="10"
     objecttolerance="10"
     borderopacity="1"
     bordercolor="#666666"
     pagecolor="#ffffff" />
  <path
     id="path70"
     d="M28.8 18.6c0 .1 0 .1 0 0 0 .2-.1.3-.2.5.1-.1.2-.3.2-.5"
     fill="#ffffff" />
  <path
     id="path72"
     d="M26.4 17s.1 0 0 0c.1 0 0 0 0 0z"
     fill="#733737" />
  <path
     id="path74"
     d="M26.5 17s-.1 0 0 0c-.1 0 0 0 0 0"
     fill="#ffffff" />
  <path
     id="path76"
     d="M28.5 17.8v9.4c0 .4-.1.7-.4.9s-.6.4-.9.4H13.8c-.4 0-.7-.1-.9-.4-.3-.3-.4-.6-.4-.9V25H4.8c-.4 0-.7-.1-.9-.4s-.4-.6-.4-1V4.8c0-.4.1-.7.4-.9.3-.3.6-.4.9-.4H20c.4 0 .7.1.9.4.3.3.4.6.4.9v4.6c.2.1.4.3.5.4l5.7 5.7c.3.3.5.6.7 1.1.2.4.3.8.3 1.2zM17.8 6.6v-.9c0-.1 0-.2-.1-.3-.1-.1-.2-.1-.3-.1H7.5c-.1 0-.2 0-.3.1-.1.1-.1.2-.1.3v.9c0 .1 0 .2.1.3.1.1.2.2.3.2h9.8c.1 0 .2 0 .3-.1.1-.1.2-.3.2-.4zm-3.6 20.1h12.5v-8.9h-5.8c-.4 0-.7-.1-.9-.4-.3-.3-.4-.6-.4-.9v-5.8h-5.4v16zM21.4 16h4.2l-4.2-4.2V16z"
     fill="#82aaff" />
</svg>
