<?xml version="1.0" encoding="UTF-8" standalone="no"?>
<svg
   xmlns:dc="http://purl.org/dc/elements/1.1/"
   xmlns:cc="http://creativecommons.org/ns#"
   xmlns:rdf="http://www.w3.org/1999/02/22-rdf-syntax-ns#"
   xmlns:svg="http://www.w3.org/2000/svg"
   xmlns="http://www.w3.org/2000/svg"
   xmlns:sodipodi="http://sodipodi.sourceforge.net/DTD/sodipodi-0.dtd"
   xmlns:inkscape="http://www.inkscape.org/namespaces/inkscape"
   inkscape:version="1.0 (4035a4fb49, 2020-05-01)"
   viewBox="0 0 32 32"
   version="1.1"
   id="svg257"
   sodipodi:docname="folder-download.svg">
  <metadata
     id="metadata263">
    <rdf:RDF>
      <cc:Work
         rdf:about="">
        <dc:format>image/svg+xml</dc:format>
        <dc:type
           rdf:resource="http://purl.org/dc/dcmitype/StillImage" />
      </cc:Work>
    </rdf:RDF>
  </metadata>
  <defs
     id="defs261" />
  <sodipodi:namedview
     inkscape:document-rotation="0"
     inkscape:current-layer="svg257"
     inkscape:cy="16"
     inkscape:cx="16"
     inkscape:zoom="34.072848"
     showgrid="false"
     id="namedview259"
     inkscape:window-height="480"
     inkscape:window-width="640"
     inkscape:pageshadow="2"
     inkscape:pageopacity="0"
     guidetolerance="10"
     gridtolerance="10"
     objecttolerance="10"
     borderopacity="1"
     bordercolor="#666666"
     pagecolor="#ffffff" />
  <path
     id="path255"
     d="M28.5 21.3v4.8c0 .4-.1.7-.4 1s-.6.4-1 .4H4.9c-.4 0-.7-.1-1-.4s-.4-.6-.4-1v-4.8c0-.4.1-.7.4-1s.6-.4 1-.4h7l2 2c.6.6 1.3.8 2 .8.8 0 1.5-.3 2-.8l2-2h7c.4 0 .7.1 1 .4s.6.6.6 1zm-4.9-8.6c.2.4.1.8-.2 1.1l-6.8 6.8c-.2.2-.4.3-.7.3-.3 0-.5-.1-.7-.3l-6.8-6.8c-.3-.3-.4-.6-.2-1.1.2-.4.5-.6.9-.6H13V5.4c0-.3.1-.5.3-.7.2-.2.4-.3.7-.3h3.9c.3 0 .5.1.7.3s.3.4.3.7v6.8h3.9c.4-.1.7.1.8.5zm-1.1 12.7c.2-.2.3-.4.3-.7 0-.3-.1-.5-.3-.7-.2-.2-.4-.3-.7-.3s-.5.1-.7.3c-.2.2-.3.4-.3.7 0 .3.1.5.3.7.2.2.4.3.7.3s.5-.2.7-.3zm3.8 0c.2-.2.3-.4.3-.7 0-.3-.1-.5-.3-.7s-.4-.3-.7-.3c-.3 0-.5.1-.7.3s-.3.4-.3.7c0 .3.1.5.3.7s.4.3.7.3c.3-.1.5-.2.7-.3z"
     fill="#82aaff" />
</svg>
