<?xml version="1.0" encoding="UTF-8" standalone="no"?>
<svg
   xmlns:dc="http://purl.org/dc/elements/1.1/"
   xmlns:cc="http://creativecommons.org/ns#"
   xmlns:rdf="http://www.w3.org/1999/02/22-rdf-syntax-ns#"
   xmlns:svg="http://www.w3.org/2000/svg"
   xmlns="http://www.w3.org/2000/svg"
   xmlns:sodipodi="http://sodipodi.sourceforge.net/DTD/sodipodi-0.dtd"
   xmlns:inkscape="http://www.inkscape.org/namespaces/inkscape"
   inkscape:version="1.0 (4035a4fb49, 2020-05-01)"
   viewBox="0 0 32 32"
   version="1.1"
   id="svg180"
   sodipodi:docname="folder-documents.svg">
  <metadata
     id="metadata186">
    <rdf:RDF>
      <cc:Work
         rdf:about="">
        <dc:format>image/svg+xml</dc:format>
        <dc:type
           rdf:resource="http://purl.org/dc/dcmitype/StillImage" />
      </cc:Work>
    </rdf:RDF>
  </metadata>
  <defs
     id="defs184" />
  <sodipodi:namedview
     inkscape:document-rotation="0"
     inkscape:current-layer="svg180"
     inkscape:cy="16"
     inkscape:cx="16"
     inkscape:zoom="34.072848"
     showgrid="false"
     id="namedview182"
     inkscape:window-height="480"
     inkscape:window-width="640"
     inkscape:pageshadow="2"
     inkscape:pageopacity="0"
     guidetolerance="10"
     gridtolerance="10"
     objecttolerance="10"
     borderopacity="1"
     bordercolor="#666666"
     pagecolor="#ffffff" />
  <path
     id="path172"
     d="M28.8 18.6c0 .1 0 .1 0 0 0 .2-.1.3-.2.5.1-.1.2-.3.2-.5"
     fill="#ffffff" />
  <path
     id="path174"
     d="M26.4 17s.1 0 0 0c.1 0 0 0 0 0z"
     fill="#733737" />
  <path
     id="path176"
     d="M26.5 17s-.1 0 0 0c-.1 0 0 0 0 0"
     fill="#ffffff" />
  <path
     id="path178"
     d="M29.3 17.4c0 .6-.2 1.1-.6 1.7l-4.1 5.1c-.4.5-.9.9-1.6 1.2-.7.3-1.3.5-2 .5H5.8c-.9 0-1.6-.3-2.2-.9s-.9-1.3-.9-2.2V9.3c0-.9.3-1.6.9-2.2s1.4-.9 2.2-.9h4.5c.9 0 1.6.3 2.2.9s.9 1.3.9 2.2v.4H21c.9 0 1.6.3 2.2.9.6.6.9 1.3.9 2.2V15h2.7c.5 0 1 .1 1.4.3.4.2.7.6.9 1 .1.4.2.7.2 1.1zm-17.7-2.3h10.7v-2.2c0-.4-.1-.7-.4-.9-.3-.3-.6-.4-.9-.4h-8c-.4 0-.7-.1-.9-.4-.3-.3-.4-.6-.4-.9v-1c0-.4-.1-.7-.4-.9-.3-.3-.7-.4-1-.4H5.8c-.4 0-.7.1-.9.4s-.4.5-.4.9v11.9L8 16.8c.4-.5.9-.9 1.6-1.2.7-.3 1.4-.5 2-.5zm15.9 2.3c0-.3-.2-.5-.7-.5H11.6c-.4 0-.8.1-1.2.3-.4.2-.8.4-1 .7L5.3 23c-.2.2-.3.4-.3.6 0 .3.2.5.7.5H21c.4 0 .8-.1 1.2-.3.4-.2.8-.5 1-.7l4.1-5.1c.1-.3.2-.5.2-.6z"
     fill="#82aaff" />
</svg>
