<?xml version="1.0" encoding="UTF-8" standalone="no"?>
<svg
   xmlns:dc="http://purl.org/dc/elements/1.1/"
   xmlns:cc="http://creativecommons.org/ns#"
   xmlns:rdf="http://www.w3.org/1999/02/22-rdf-syntax-ns#"
   xmlns:svg="http://www.w3.org/2000/svg"
   xmlns="http://www.w3.org/2000/svg"
   xmlns:sodipodi="http://sodipodi.sourceforge.net/DTD/sodipodi-0.dtd"
   xmlns:inkscape="http://www.inkscape.org/namespaces/inkscape"
   inkscape:version="1.0 (4035a4fb49, 2020-05-01)"
   viewBox="0 0 32 32"
   version="1.1"
   id="svg823"
   sodipodi:docname="folder-new.svg">
  <metadata
     id="metadata829">
    <rdf:RDF>
      <cc:Work
         rdf:about="">
        <dc:format>image/svg+xml</dc:format>
        <dc:type
           rdf:resource="http://purl.org/dc/dcmitype/StillImage" />
      </cc:Work>
    </rdf:RDF>
  </metadata>
  <defs
     id="defs827" />
  <sodipodi:namedview
     pagecolor="#ffffff"
     bordercolor="#666666"
     borderopacity="1"
     objecttolerance="10"
     gridtolerance="10"
     guidetolerance="10"
     inkscape:pageopacity="0"
     inkscape:pageshadow="2"
     inkscape:window-width="640"
     inkscape:window-height="480"
     id="namedview825"
     showgrid="false"
     inkscape:zoom="50.545152"
     inkscape:cx="16"
     inkscape:cy="16"
     inkscape:current-layer="svg823"
     inkscape:document-rotation="0" />
  <path
     fill="#ffffff"
     d="M28.4 18.7c0 .2-.1.3-.2.5.1-.1.2-.3.2-.5m-2.3-1.6c-.1 0-.1 0 0 0-.1 0-.1 0 0 0"
     id="path817" />
  <path
     fill="#addb67"
     d="M29.4 21.1v2c0 .3-.1.5-.3.7-.1.1-.4.3-.7.3h-4.3v4.2c0 .3-.1.5-.3.7-.1.1-.4.3-.7.3h-2c-.3 0-.5-.1-.7-.3-.1-.1-.3-.4-.3-.7v-4.2h-4.2c-.3 0-.5-.1-.7-.3-.1-.1-.3-.4-.3-.7v-2c0-.3.1-.5.3-.7.1-.1.4-.3.7-.3h4.2v-4.2c0-.3.1-.5.3-.7.1-.1.4-.3.7-.3h2c.3 0 .5.1.7.3.1.1.3.4.3.7v4.2h4.2c.3 0 .5.1.7.3.3.1.4.4.4.7z"
     id="path819" />
  <path
     fill="#82aaff"
     d="M14.7 21.1v-.3h-9c-.5 0-.7-.2-.7-.5 0-.1.1-.3.3-.6l4.1-5.1c.2-.3.6-.5 1-.7.4-.2.8-.3 1.2-.3h15.2c.5 0 .7.2.7.5 0 .2-.1.3-.3.5l-2.5 3.1v1.8h.8l3.1-3.8c.4-.5.6-1.1.6-1.7 0-.3-.1-.7-.2-.9-.2-.4-.5-.8-.9-1-.4-.2-.9-.3-1.4-.3H24V9.6c0-.9-.3-1.6-.9-2.2-.6-.6-1.3-.9-2.2-.9h-7.6v-.4c0-.9-.3-1.6-.9-2.2s-1.4-1-2.2-1H5.7c-.9 0-1.6.3-2.2.9s-.9 1.4-.9 2.3v13.4c0 .9.3 1.6.9 2.2s1.3.9 2.2.9h9v-1.5zM4.4 6.1c0-.4.1-.7.4-.9s.6-.4.9-.4h4.5c.4 0 .7.1.9.4.3.3.4.6.4.9V7c0 .4.1.7.4.9.3.3.6.4.9.4h8c.4 0 .7.1.9.4.3.3.4.6.4.9v2.2H11.5c-.6 0-1.3.2-2 .5s-1.2.7-1.6 1.2L4.4 18V6.1z"
     id="path821" />
</svg>
