<?xml version="1.0" encoding="UTF-8" standalone="no"?>
<svg
   xmlns:dc="http://purl.org/dc/elements/1.1/"
   xmlns:cc="http://creativecommons.org/ns#"
   xmlns:rdf="http://www.w3.org/1999/02/22-rdf-syntax-ns#"
   xmlns:svg="http://www.w3.org/2000/svg"
   xmlns="http://www.w3.org/2000/svg"
   xmlns:sodipodi="http://sodipodi.sourceforge.net/DTD/sodipodi-0.dtd"
   xmlns:inkscape="http://www.inkscape.org/namespaces/inkscape"
   inkscape:version="1.0 (4035a4fb49, 2020-05-01)"
   viewBox="0 0 32 32"
   version="1.1"
   id="svg648"
   sodipodi:docname="go-bottom.svg">
  <metadata
     id="metadata654">
    <rdf:RDF>
      <cc:Work
         rdf:about="">
        <dc:format>image/svg+xml</dc:format>
        <dc:type
           rdf:resource="http://purl.org/dc/dcmitype/StillImage" />
      </cc:Work>
    </rdf:RDF>
  </metadata>
  <defs
     id="defs652" />
  <sodipodi:namedview
     inkscape:document-rotation="0"
     inkscape:current-layer="svg648"
     inkscape:cy="16"
     inkscape:cx="16"
     inkscape:zoom="34.072848"
     showgrid="false"
     id="namedview650"
     inkscape:window-height="480"
     inkscape:window-width="640"
     inkscape:pageshadow="2"
     inkscape:pageopacity="0"
     guidetolerance="10"
     gridtolerance="10"
     objecttolerance="10"
     borderopacity="1"
     bordercolor="#666666"
     pagecolor="#ffffff" />
  <path
     id="path640"
     d="M28.8 18.6c0 .1 0 .1 0 0 0 .2-.1.3-.2.5.1-.1.2-.3.2-.5"
     fill="#ffffff" />
  <path
     id="path642"
     d="M26.4 17s.1 0 0 0c.1 0 0 0 0 0z"
     fill="#733737" />
  <path
     id="path644"
     d="M26.5 17s-.1 0 0 0c-.1 0 0 0 0 0"
     fill="#ffffff" />
  <path
     id="path646"
     d="M26.4 22.9c.2-.2.3-.4.3-.6v-1.8c0-.2-.1-.5-.3-.6-.2-.2-.4-.3-.6-.3h-9.5c.1 0 .2-.1.3-.2l9.9-9.9c.2-.2.2-.3.2-.4-.1-.1-.2-.2-.4-.2H5.7c-.2 0-.4 0-.4.1-.1.1 0 .3.2.4l9.9 9.9c.1.1.2.1.3.2H6.2c-.2 0-.5.1-.6.3-.2.2-.3.4-.3.6v1.8c0 .2.1.5.3.6s.4.3.6.3h19.6c.3 0 .5 0 .6-.2z"
     fill="#82aaff" />
</svg>
