<?xml version="1.0" encoding="UTF-8" standalone="no"?>
<svg
   xmlns:dc="http://purl.org/dc/elements/1.1/"
   xmlns:cc="http://creativecommons.org/ns#"
   xmlns:rdf="http://www.w3.org/1999/02/22-rdf-syntax-ns#"
   xmlns:svg="http://www.w3.org/2000/svg"
   xmlns="http://www.w3.org/2000/svg"
   xmlns:sodipodi="http://sodipodi.sourceforge.net/DTD/sodipodi-0.dtd"
   xmlns:inkscape="http://www.inkscape.org/namespaces/inkscape"
   inkscape:version="1.0 (4035a4fb49, 2020-05-01)"
   viewBox="0 0 2000 2000"
   version="1.1"
   id="svg793"
   sodipodi:docname="go-up.svg">
  <metadata
     id="metadata799">
    <rdf:RDF>
      <cc:Work
         rdf:about="">
        <dc:format>image/svg+xml</dc:format>
        <dc:type
           rdf:resource="http://purl.org/dc/dcmitype/StillImage" />
      </cc:Work>
    </rdf:RDF>
  </metadata>
  <defs
     id="defs797" />
  <sodipodi:namedview
     inkscape:document-rotation="0"
     inkscape:current-layer="svg793"
     inkscape:cy="1000"
     inkscape:cx="1000"
     inkscape:zoom="0.54516556"
     showgrid="false"
     id="namedview795"
     inkscape:window-height="480"
     inkscape:window-width="640"
     inkscape:pageshadow="2"
     inkscape:pageopacity="0"
     guidetolerance="10"
     gridtolerance="10"
     objecttolerance="10"
     borderopacity="1"
     bordercolor="#666666"
     pagecolor="#ffffff" />
  <path
     id="path785"
     d="M1800 1162.5c0 6.3 0 6.3 0 0 0 12.5-6.3 18.8-12.5 31.3 6.3-6.3 12.5-18.8 12.5-31.3"
     fill="#ffffff" />
  <path
     id="path787"
     d="M1650 1062.5s6.3 0 0 0c6.3 0 0 0 0 0z"
     fill="#733737" />
  <path
     id="path789"
     d="M1656.3 1062.5s-6.3 0 0 0c-6.3 0 0 0 0 0"
     fill="#ffffff" />
  <path
     id="path791"
     d="M348.9 1347.9c-23.1 0-28.6-13.4-12.3-29.7l634.9-636.3c16.3-16.4 43-16.3 59.3.1l632.7 636.2c16.3 16.4 10.7 29.8-12.4 29.8H348.9z"
     fill="#82aaff" />
</svg>
