<?xml version="1.0" encoding="UTF-8" standalone="no"?>
<svg
   xmlns:dc="http://purl.org/dc/elements/1.1/"
   xmlns:cc="http://creativecommons.org/ns#"
   xmlns:rdf="http://www.w3.org/1999/02/22-rdf-syntax-ns#"
   xmlns:svg="http://www.w3.org/2000/svg"
   xmlns="http://www.w3.org/2000/svg"
   xmlns:sodipodi="http://sodipodi.sourceforge.net/DTD/sodipodi-0.dtd"
   xmlns:inkscape="http://www.inkscape.org/namespaces/inkscape"
   inkscape:version="1.0 (4035a4fb49, 2020-05-01)"
   viewBox="0 0 32 32"
   version="1.1"
   id="svg855"
   sodipodi:docname="help-contents.svg">
  <metadata
     id="metadata861">
    <rdf:RDF>
      <cc:Work
         rdf:about="">
        <dc:format>image/svg+xml</dc:format>
        <dc:type
           rdf:resource="http://purl.org/dc/dcmitype/StillImage" />
      </cc:Work>
    </rdf:RDF>
  </metadata>
  <defs
     id="defs859" />
  <sodipodi:namedview
     inkscape:document-rotation="0"
     inkscape:current-layer="svg855"
     inkscape:cy="16"
     inkscape:cx="16"
     inkscape:zoom="34.072848"
     showgrid="false"
     id="namedview857"
     inkscape:window-height="480"
     inkscape:window-width="640"
     inkscape:pageshadow="2"
     inkscape:pageopacity="0"
     guidetolerance="10"
     gridtolerance="10"
     objecttolerance="10"
     borderopacity="1"
     bordercolor="#666666"
     pagecolor="#ffffff" />
  <path
     id="path853"
     d="M8.8 3.9h-.5c-1.1 0-2 .9-2 2v20.3c0 1.1.9 2 2 2h.5V3.9zm14.9 0H9.8v24.3h13.9c1.1 0 2-.9 2-2V5.9c0-1.1-.9-2-2-2zm-4.5 18.9c0 .1 0 .2-.1.3-.1.1-.2.1-.3.1H16c-.1 0-.2 0-.3-.1-.1-.1-.1-.2-.1-.3v-2.7c0-.1 0-.2.1-.3.1-.1.2-.1.3-.1h2.7c.1 0 .2 0 .3.1.1.1.1.2.1.3v2.7zm3.4-8.4c-.1.4-.2.6-.4.9-.1.2-.4.4-.6.7-.3.2-.5.4-.7.5-.2.1-.4.2-.7.4-.3.2-.6.4-.8.7-.2.3-.3.6-.3.8 0 .1 0 .3-.1.4-.1.1-.2.2-.3.2H16c-.1 0-.2-.1-.3-.2-.1-.1-.1-.3-.1-.4v-.5c0-.6.2-1.2.7-1.8.5-.6 1-1 1.6-1.2.4-.2.8-.4 1-.6.2-.2.3-.5.3-.9 0-.3-.2-.6-.5-.8-.4-.2-.8-.4-1.2-.4-.5 0-.9.1-1.2.3-.3.2-.7.6-1.2 1.3-.1.1-.2.2-.4.2-.1 0-.2 0-.3-.1l-1.9-1.4c-.1-.1-.2-.2-.2-.3 0-.1 0-.2.1-.3 1.2-2 3-3 5.2-3 .6 0 1.2.1 1.8.4.6.2 1.2.5 1.7.9s.9.9 1.2 1.4c.3.6.5 1.2.5 1.8-.1.3-.1.7-.2 1z"
     fill="#82aaff" />
</svg>
