<?xml version="1.0" encoding="UTF-8" standalone="no"?>
<svg
   xmlns:dc="http://purl.org/dc/elements/1.1/"
   xmlns:cc="http://creativecommons.org/ns#"
   xmlns:rdf="http://www.w3.org/1999/02/22-rdf-syntax-ns#"
   xmlns:svg="http://www.w3.org/2000/svg"
   xmlns="http://www.w3.org/2000/svg"
   xmlns:sodipodi="http://sodipodi.sourceforge.net/DTD/sodipodi-0.dtd"
   xmlns:inkscape="http://www.inkscape.org/namespaces/inkscape"
   inkscape:version="1.0 (4035a4fb49, 2020-05-01)"
   viewBox="984 984 32 32"
   version="1.1"
   id="svg828"
   sodipodi:docname="help-about.svg">
  <metadata
     id="metadata834">
    <rdf:RDF>
      <cc:Work
         rdf:about="">
        <dc:format>image/svg+xml</dc:format>
        <dc:type
           rdf:resource="http://purl.org/dc/dcmitype/StillImage" />
      </cc:Work>
    </rdf:RDF>
  </metadata>
  <defs
     id="defs832" />
  <sodipodi:namedview
     inkscape:document-rotation="0"
     inkscape:current-layer="svg828"
     inkscape:cy="16"
     inkscape:cx="16"
     inkscape:zoom="34.072848"
     showgrid="false"
     id="namedview830"
     inkscape:window-height="480"
     inkscape:window-width="640"
     inkscape:pageshadow="2"
     inkscape:pageopacity="0"
     guidetolerance="10"
     gridtolerance="10"
     objecttolerance="10"
     borderopacity="1"
     bordercolor="#666666"
     pagecolor="#ffffff" />
  <path
     id="path824"
     d="M-43.8-437.5H2700v2625H-43.8z"
     fill="none" />
  <path
     id="path826"
     d="M1012.3 993.2c1.3 2.2 1.9 4.6 1.9 7.2 0 2.6-.6 5-1.9 7.2-1.3 2.2-3 3.9-5.2 5.2-2.2 1.3-4.6 1.9-7.2 1.9s-5-.6-7.2-1.9c-2.2-1.3-3.9-3-5.2-5.2-1.3-2.2-1.9-4.6-1.9-7.2 0-2.6.6-5 1.9-7.2s3-3.9 5.2-5.2 4.6-1.9 7.2-1.9 5 .6 7.2 1.9 4 3 5.2 5.2zm-7.5 16.1v-3c0-.2-.1-.3-.2-.4s-.3-.2-.4-.2h-1.8v-9.5c0-.2-.1-.3-.2-.4-.1-.1-.3-.2-.4-.2h-5.9c-.2 0-.3.1-.4.2-.1.1-.2.3-.2.4v3c0 .2.1.3.2.4.1.1.3.2.4.2h1.8v5.9h-1.8c-.2 0-.3.1-.4.2-.1.1-.2.3-.2.4v3c0 .2.1.3.2.4.1.1.3.2.4.2h8.3c.2 0 .3-.1.4-.2s.2-.2.2-.4zm-2.4-16.6v-3c0-.2-.1-.3-.2-.4-.1-.1-.3-.2-.4-.2h-3.6c-.2 0-.3.1-.4.2-.1.1-.2.3-.2.4v3c0 .2.1.3.2.4.1.1.3.2.4.2h3.6c.2 0 .3-.1.4-.2.1-.1.2-.3.2-.4z"
     fill="#82aaff" />
</svg>
