<?xml version="1.0" encoding="UTF-8" standalone="no"?>
<svg
   xmlns:dc="http://purl.org/dc/elements/1.1/"
   xmlns:cc="http://creativecommons.org/ns#"
   xmlns:rdf="http://www.w3.org/1999/02/22-rdf-syntax-ns#"
   xmlns:svg="http://www.w3.org/2000/svg"
   xmlns="http://www.w3.org/2000/svg"
   xmlns:sodipodi="http://sodipodi.sourceforge.net/DTD/sodipodi-0.dtd"
   xmlns:inkscape="http://www.inkscape.org/namespaces/inkscape"
   inkscape:version="1.0 (4035a4fb49, 2020-05-01)"
   viewBox="0 0 32 32"
   version="1.1"
   id="svg673"
   sodipodi:docname="kt-set-max-upload-speed.svg">
  <metadata
     id="metadata679">
    <rdf:RDF>
      <cc:Work
         rdf:about="">
        <dc:format>image/svg+xml</dc:format>
        <dc:type
           rdf:resource="http://purl.org/dc/dcmitype/StillImage" />
      </cc:Work>
    </rdf:RDF>
  </metadata>
  <defs
     id="defs677" />
  <sodipodi:namedview
     inkscape:document-rotation="0"
     inkscape:current-layer="svg673"
     inkscape:cy="16"
     inkscape:cx="16"
     inkscape:zoom="34.072848"
     showgrid="false"
     id="namedview675"
     inkscape:window-height="480"
     inkscape:window-width="640"
     inkscape:pageshadow="2"
     inkscape:pageopacity="0"
     guidetolerance="10"
     gridtolerance="10"
     objecttolerance="10"
     borderopacity="1"
     bordercolor="#666666"
     pagecolor="#ffffff" />
  <path
     id="path669"
     fill="#f78c6c"
     d="M20.357 22.701c0 1.872-.03 3.745.012 5.616.022.953-.685 1.665-1.65 1.641a114.23 114.23 0 0 0-5.444 0c-.943.022-1.638-.69-1.63-1.626.029-3.79.011-7.58.011-11.37 0-.527 0-.528-.537-.528-1.86 0-3.722-.015-5.582.008-.692.009-1.185-.263-1.472-.866-.304-.638-.087-1.206.345-1.714.037-.044.08-.083.12-.123 3.426-3.428 6.854-6.855 10.278-10.285.358-.359.76-.569 1.285-.55.438.016.77.221 1.06.508A1426.757 1426.757 0 0 1 27.624 13.94c.77.783.524 1.987-.495 2.4-.184.074-.402.09-.605.09-1.895.007-3.79.004-5.685.005-.481 0-.483.001-.483.477v5.789z" />
  <path
     id="path671"
     fill="#f78c6c"
     d="M26.576 2.041H5.43c-.825 0-1.5.675-1.5 1.5 0 .826.675 1.502 1.5 1.502h21.146c.825 0 1.5-.676 1.5-1.501 0-.826-.675-1.5-1.5-1.5z" />
</svg>
