<?xml version="1.0" encoding="UTF-8" standalone="no"?>
<svg
   xmlns:dc="http://purl.org/dc/elements/1.1/"
   xmlns:cc="http://creativecommons.org/ns#"
   xmlns:rdf="http://www.w3.org/1999/02/22-rdf-syntax-ns#"
   xmlns:svg="http://www.w3.org/2000/svg"
   xmlns="http://www.w3.org/2000/svg"
   xmlns:sodipodi="http://sodipodi.sourceforge.net/DTD/sodipodi-0.dtd"
   xmlns:inkscape="http://www.inkscape.org/namespaces/inkscape"
   inkscape:version="1.0 (4035a4fb49, 2020-05-01)"
   viewBox="984 984 32 32"
   version="1.1"
   id="svg929"
   sodipodi:docname="list-add.svg">
  <metadata
     id="metadata935">
    <rdf:RDF>
      <cc:Work
         rdf:about="">
        <dc:format>image/svg+xml</dc:format>
        <dc:type
           rdf:resource="http://purl.org/dc/dcmitype/StillImage" />
      </cc:Work>
    </rdf:RDF>
  </metadata>
  <defs
     id="defs933" />
  <sodipodi:namedview
     pagecolor="#ffffff"
     bordercolor="#666666"
     borderopacity="1"
     objecttolerance="10"
     gridtolerance="10"
     guidetolerance="10"
     inkscape:pageopacity="0"
     inkscape:pageshadow="2"
     inkscape:window-width="640"
     inkscape:window-height="480"
     id="namedview931"
     showgrid="false"
     inkscape:zoom="50.545152"
     inkscape:cx="16"
     inkscape:cy="16"
     inkscape:current-layer="svg929"
     inkscape:document-rotation="0" />
  <path
     fill="none"
     d="M-43.8-437.5H2700v2625H-43.8z"
     id="path923" />
  <path
     fill="#82aaff"
     d="M1010 992.4c.2.3.5.6.6 1 .2.4.3.8.3 1.2v15.4c0 .4-.1.7-.4.9-.3.2-.6.4-.9.4h-18c-.4 0-.7-.1-.9-.4-.2-.3-.4-.6-.4-.9v-21.4c0-.4.1-.7.4-.9.3-.2.6-.4.9-.4h12c.4 0 .8.1 1.2.3.4.2.8.4 1 .6l4.2 4.2zm-.8 17.2v-13.7h-5.6c-.4 0-.7-.1-.9-.4-.3-.2-.4-.6-.4-.9V989H992v20.6h17.2zm-5.2-20.4v5h5c-.1-.3-.2-.4-.3-.5l-4.2-4.2c0-.1-.2-.2-.5-.3z"
     id="path925" />
  <path
     fill="#addb67"
     d="M1000 1006.5v1.5c0 .2-.1.4-.2.5-.1.1-.3.2-.5.2H996v3.2c0 .2-.1.4-.2.5-.1.1-.3.2-.5.2h-1.5c-.2 0-.4-.1-.5-.2-.1-.1-.2-.3-.2-.5v-3.2h-3.2c-.2 0-.4-.1-.5-.2-.1-.1-.2-.3-.2-.5v-1.5c0-.2.1-.4.2-.5.1-.1.3-.2.5-.2h3.2v-3.2c0-.2.1-.4.2-.5.1-.1.3-.2.5-.2h1.5c.2 0 .4.1.5.2.1.1.2.3.2.5v3.2h3.2c.2 0 .4.1.5.2.2.1.3.3.3.5z"
     id="path927" />
</svg>
