<?xml version="1.0" encoding="UTF-8" standalone="no"?>
<svg
   xmlns:dc="http://purl.org/dc/elements/1.1/"
   xmlns:cc="http://creativecommons.org/ns#"
   xmlns:rdf="http://www.w3.org/1999/02/22-rdf-syntax-ns#"
   xmlns:svg="http://www.w3.org/2000/svg"
   xmlns="http://www.w3.org/2000/svg"
   xmlns:sodipodi="http://sodipodi.sourceforge.net/DTD/sodipodi-0.dtd"
   xmlns:inkscape="http://www.inkscape.org/namespaces/inkscape"
   inkscape:version="1.0 (4035a4fb49, 2020-05-01)"
   viewBox="0 0 32 32"
   version="1.1"
   id="svg977"
   sodipodi:docname="mail-folder-inbox.svg">
  <metadata
     id="metadata983">
    <rdf:RDF>
      <cc:Work
         rdf:about="">
        <dc:format>image/svg+xml</dc:format>
        <dc:type
           rdf:resource="http://purl.org/dc/dcmitype/StillImage" />
      </cc:Work>
    </rdf:RDF>
  </metadata>
  <defs
     id="defs981" />
  <sodipodi:namedview
     inkscape:document-rotation="0"
     inkscape:current-layer="svg977"
     inkscape:cy="16"
     inkscape:cx="16"
     inkscape:zoom="34.072848"
     showgrid="false"
     id="namedview979"
     inkscape:window-height="480"
     inkscape:window-width="640"
     inkscape:pageshadow="2"
     inkscape:pageopacity="0"
     guidetolerance="10"
     gridtolerance="10"
     objecttolerance="10"
     borderopacity="1"
     bordercolor="#666666"
     pagecolor="#ffffff" />
  <path
     id="path975"
     d="M26.7 17.3V24c0 .2-.1.5-.3.6-.2.2-.4.3-.6.3H6.2c-.2 0-.5-.1-.6-.3-.2-.2-.3-.4-.3-.6v-6.7c0-.6.1-1.1.3-1.7L9 7.9c0-.2.2-.4.5-.6.2-.2.5-.2.7-.2h11.6c.2 0 .5.1.7.2.3.2.5.4.5.6l3.3 7.7c.3.6.4 1.1.4 1.7zm-7.1-.4H24v-.2l-3-6.9h-9.9l-3 6.9v.2h4.4l1.3 2.7h4.5l1.3-2.7z"
     fill="#82aaff" />
</svg>
