<?xml version="1.0" encoding="UTF-8" standalone="no"?>
<svg
   xmlns:dc="http://purl.org/dc/elements/1.1/"
   xmlns:cc="http://creativecommons.org/ns#"
   xmlns:rdf="http://www.w3.org/1999/02/22-rdf-syntax-ns#"
   xmlns:svg="http://www.w3.org/2000/svg"
   xmlns="http://www.w3.org/2000/svg"
   xmlns:sodipodi="http://sodipodi.sourceforge.net/DTD/sodipodi-0.dtd"
   xmlns:inkscape="http://www.inkscape.org/namespaces/inkscape"
   inkscape:version="1.0 (4035a4fb49, 2020-05-01)"
   viewBox="0 0 32 32"
   version="1.1"
   id="svg1043"
   sodipodi:docname="media-playback-pause.svg">
  <metadata
     id="metadata1049">
    <rdf:RDF>
      <cc:Work
         rdf:about="">
        <dc:format>image/svg+xml</dc:format>
        <dc:type
           rdf:resource="http://purl.org/dc/dcmitype/StillImage" />
      </cc:Work>
    </rdf:RDF>
  </metadata>
  <defs
     id="defs1047" />
  <sodipodi:namedview
     inkscape:document-rotation="0"
     inkscape:current-layer="svg1043"
     inkscape:cy="16"
     inkscape:cx="16"
     inkscape:zoom="34.072848"
     showgrid="false"
     id="namedview1045"
     inkscape:window-height="480"
     inkscape:window-width="640"
     inkscape:pageshadow="2"
     inkscape:pageopacity="0"
     guidetolerance="10"
     gridtolerance="10"
     objecttolerance="10"
     borderopacity="1"
     bordercolor="#666666"
     pagecolor="#ffffff" />
  <path
     id="path1041"
     d="M14.2 6.2v19.6c0 .2-.1.5-.3.6-.2.2-.4.3-.6.3H6.2c-.2 0-.5-.1-.6-.3-.2-.2-.3-.4-.3-.6V6.2c0-.2.1-.5.3-.6.2-.2.4-.3.6-.3h7.1c.2 0 .5.1.6.3.2.1.3.3.3.6zm12.5 0v19.6c0 .2-.1.5-.3.6-.2.2-.4.3-.6.3h-7.1c-.2 0-.5-.1-.6-.3-.2-.2-.3-.4-.3-.6V6.2c0-.2.1-.5.3-.6.2-.2.4-.3.6-.3h7.1c.2 0 .5.1.6.3.2.1.3.3.3.6z"
     fill="#82aaff" />
</svg>
