<?xml version="1.0" encoding="UTF-8" standalone="no"?>
<svg
   xmlns:dc="http://purl.org/dc/elements/1.1/"
   xmlns:cc="http://creativecommons.org/ns#"
   xmlns:rdf="http://www.w3.org/1999/02/22-rdf-syntax-ns#"
   xmlns:svg="http://www.w3.org/2000/svg"
   xmlns="http://www.w3.org/2000/svg"
   xmlns:sodipodi="http://sodipodi.sourceforge.net/DTD/sodipodi-0.dtd"
   xmlns:inkscape="http://www.inkscape.org/namespaces/inkscape"
   inkscape:version="1.0 (4035a4fb49, 2020-05-01)"
   viewBox="0 0 32 32"
   version="1.1"
   id="svg1156"
   sodipodi:docname="network-server.svg">
  <metadata
     id="metadata1162">
    <rdf:RDF>
      <cc:Work
         rdf:about="">
        <dc:format>image/svg+xml</dc:format>
        <dc:type
           rdf:resource="http://purl.org/dc/dcmitype/StillImage" />
      </cc:Work>
    </rdf:RDF>
  </metadata>
  <defs
     id="defs1160" />
  <sodipodi:namedview
     inkscape:document-rotation="0"
     inkscape:current-layer="svg1156"
     inkscape:cy="16"
     inkscape:cx="16"
     inkscape:zoom="34.072848"
     showgrid="false"
     id="namedview1158"
     inkscape:window-height="480"
     inkscape:window-width="640"
     inkscape:pageshadow="2"
     inkscape:pageopacity="0"
     guidetolerance="10"
     gridtolerance="10"
     objecttolerance="10"
     borderopacity="1"
     bordercolor="#666666"
     pagecolor="#ffffff" />
  <path
     id="path1146"
     d="M16 26.2c-.5 0-.8-.4-.8-.8v-4.1c0-.5.4-.8.8-.8.5 0 .8.4.8.8v4.1c0 .5-.3.8-.8.8z"
     fill="#82aaff" />
  <g
     id="g1152"
     fill="#82aaff">
    <path
       id="path1148"
       d="M28.8 26.9H3.2c-.5 0-.9-.4-.9-.9s.4-.9.9-.9h25.5c.5 0 .9.4.9.9.1.5-.3.9-.8.9z" />
    <path
       id="path1150"
       d="M19.9 27.6h-7.8c-.6 0-1-.5-1-1v-1.3c0-.5.4-1 1-1h7.8c.5 0 1 .5 1 1v1.3c0 .6-.5 1-1 1z" />
  </g>
  <path
     id="path1154"
     fill="#82aaff"
     d="M18.7 2.9h-.4v19h.4c1.1 0 2-.9 2-2v-15c0-1.1-.9-2-2-2zm-5.4 0c-1.1 0-2 .9-2 2v15c0 1.1.9 2 2 2h4v-19h-4zm.8 17.5c-.8 0-1.5-.7-1.5-1.5s.7-1.5 1.5-1.5 1.5.7 1.5 1.5-.7 1.5-1.5 1.5z" />
</svg>
