<?xml version="1.0" encoding="UTF-8" standalone="no"?>
<svg
   xmlns:dc="http://purl.org/dc/elements/1.1/"
   xmlns:cc="http://creativecommons.org/ns#"
   xmlns:rdf="http://www.w3.org/1999/02/22-rdf-syntax-ns#"
   xmlns:svg="http://www.w3.org/2000/svg"
   xmlns="http://www.w3.org/2000/svg"
   xmlns:sodipodi="http://sodipodi.sourceforge.net/DTD/sodipodi-0.dtd"
   xmlns:inkscape="http://www.inkscape.org/namespaces/inkscape"
   inkscape:version="1.0 (4035a4fb49, 2020-05-01)"
   viewBox="0 0 32 32"
   version="1.1"
   id="svg1199"
   sodipodi:docname="network-wired.svg">
  <metadata
     id="metadata1205">
    <rdf:RDF>
      <cc:Work
         rdf:about="">
        <dc:format>image/svg+xml</dc:format>
        <dc:type
           rdf:resource="http://purl.org/dc/dcmitype/StillImage" />
      </cc:Work>
    </rdf:RDF>
  </metadata>
  <defs
     id="defs1203" />
  <sodipodi:namedview
     inkscape:document-rotation="0"
     inkscape:current-layer="svg1199"
     inkscape:cy="16"
     inkscape:cx="16"
     inkscape:zoom="34.072848"
     showgrid="false"
     id="namedview1201"
     inkscape:window-height="480"
     inkscape:window-width="640"
     inkscape:pageshadow="2"
     inkscape:pageopacity="0"
     guidetolerance="10"
     gridtolerance="10"
     objecttolerance="10"
     borderopacity="1"
     bordercolor="#666666"
     pagecolor="#ffffff" />
  <path
     id="path1197"
     d="M25.7 3.9H6.3C5 3.9 3.9 5 3.9 6.3v19.5c0 1.3 1 2.3 2.3 2.3h19.5c1.3 0 2.3-1 2.3-2.3V6.3c.1-1.3-1-2.4-2.3-2.4zm-2.3 17.5c0 .6-.5 1.2-1.2 1.2h-1.5v-3.3c0-.3-.3-.6-.6-.6s-.6.3-.6.6v3.3H18v-3.3c0-.3-.3-.6-.6-.6s-.6.3-.6.6v3.3h-1.6v-3.3c0-.3-.3-.6-.6-.6s-.6.2-.6.6v3.3h-1.6v-3.3c0-.3-.3-.6-.6-.6s-.6.3-.6.6v3.3H9.7c-.6 0-1.2-.5-1.2-1.2v-7.9c0-.6.5-1.2 1.2-1.2h3.5v-1.7c0-.6.5-1.2 1.2-1.2h3.3c.6 0 1.2.5 1.2 1.2v1.7h3.5c.6 0 1.2.5 1.2 1.2v7.9z"
     fill="#82aaff" />
</svg>
