<?xml version="1.0" encoding="UTF-8" standalone="no"?>
<svg
   xmlns:dc="http://purl.org/dc/elements/1.1/"
   xmlns:cc="http://creativecommons.org/ns#"
   xmlns:rdf="http://www.w3.org/1999/02/22-rdf-syntax-ns#"
   xmlns:svg="http://www.w3.org/2000/svg"
   xmlns="http://www.w3.org/2000/svg"
   xmlns:sodipodi="http://sodipodi.sourceforge.net/DTD/sodipodi-0.dtd"
   xmlns:inkscape="http://www.inkscape.org/namespaces/inkscape"
   inkscape:version="1.0 (4035a4fb49, 2020-05-01)"
   viewBox="0 0 32 32"
   version="1.1"
   id="svg1230"
   sodipodi:docname="office-chart-line.svg">
  <metadata
     id="metadata1236">
    <rdf:RDF>
      <cc:Work
         rdf:about="">
        <dc:format>image/svg+xml</dc:format>
        <dc:type
           rdf:resource="http://purl.org/dc/dcmitype/StillImage" />
      </cc:Work>
    </rdf:RDF>
  </metadata>
  <defs
     id="defs1234" />
  <sodipodi:namedview
     inkscape:document-rotation="0"
     inkscape:current-layer="svg1230"
     inkscape:cy="16"
     inkscape:cx="16"
     inkscape:zoom="34.072848"
     showgrid="false"
     id="namedview1232"
     inkscape:window-height="480"
     inkscape:window-width="640"
     inkscape:pageshadow="2"
     inkscape:pageopacity="0"
     guidetolerance="10"
     gridtolerance="10"
     objecttolerance="10"
     borderopacity="1"
     bordercolor="#666666"
     pagecolor="#ffffff" />
  <path
     id="path1228"
     d="M29.7 24.6v1.7H2.3V5.7H4v18.9h25.7zM28 7.9v5.8c0 .2-.1.3-.3.4s-.3 0-.5-.1l-1.6-1.6-8.5 8.5s-.1.1-.2.1-.2 0-.3-.1l-3.1-3.1-5.6 5.6-2.6-2.6 7.8-7.8c.1-.1.2-.1.3-.1.1 0 .2 0 .3.1l3.1 3.1L23 9.9l-1.6-1.6c-.1-.1-.2-.3-.1-.5s.2-.3.4-.3h5.8c.1 0 .2 0 .3.1.2 0 .2.1.2.3z"
     fill="#82aaff" />
</svg>
