<?xml version="1.0" encoding="UTF-8" standalone="no"?>
<svg
   xmlns:dc="http://purl.org/dc/elements/1.1/"
   xmlns:cc="http://creativecommons.org/ns#"
   xmlns:rdf="http://www.w3.org/1999/02/22-rdf-syntax-ns#"
   xmlns:svg="http://www.w3.org/2000/svg"
   xmlns="http://www.w3.org/2000/svg"
   xmlns:sodipodi="http://sodipodi.sourceforge.net/DTD/sodipodi-0.dtd"
   xmlns:inkscape="http://www.inkscape.org/namespaces/inkscape"
   inkscape:version="1.0 (4035a4fb49, 2020-05-01)"
   viewBox="0 0 32 32"
   version="1.1"
   id="svg28"
   sodipodi:docname="services.svg">
  <metadata
     id="metadata34">
    <rdf:RDF>
      <cc:Work
         rdf:about="">
        <dc:format>image/svg+xml</dc:format>
        <dc:type
           rdf:resource="http://purl.org/dc/dcmitype/StillImage" />
      </cc:Work>
    </rdf:RDF>
  </metadata>
  <defs
     id="defs32" />
  <sodipodi:namedview
     inkscape:document-rotation="0"
     inkscape:current-layer="svg28"
     inkscape:cy="16"
     inkscape:cx="16"
     inkscape:zoom="34.375"
     showgrid="false"
     id="namedview30"
     inkscape:window-height="480"
     inkscape:window-width="640"
     inkscape:pageshadow="2"
     inkscape:pageopacity="0"
     guidetolerance="10"
     gridtolerance="10"
     objecttolerance="10"
     borderopacity="1"
     bordercolor="#666666"
     pagecolor="#ffffff" />
  <path
     id="path26"
     d="M7.9 7.4c0 .6-.3 1.1-.9 1.5v17c0 .1 0 .2-.1.3s-.2.1-.3.1h-.9c-.1 0-.2 0-.3-.1s-.1-.2-.1-.3v-17c-.6-.3-.9-.8-.9-1.5 0-.5.2-.9.5-1.2s.7-.5 1.2-.5.9.2 1.3.5c.3.4.5.8.5 1.2zm19.7.9v10.2c0 .2-.1.4-.2.5s-.3.2-.5.4C25 20.4 23.3 21 22 21c-.5 0-1.1-.1-1.7-.3-.6-.2-1-.4-1.5-.6-.4-.2-.9-.4-1.5-.6-.6-.2-1.3-.3-1.9-.3-1.7 0-3.8.7-6.2 2-.2.1-.3.1-.4.1-.2 0-.4-.1-.6-.3-.2-.2-.3-.4-.3-.6v-9.9c0-.3.1-.5.4-.7.2-.3.5-.5 1-.8 2.1-1.1 4-1.6 5.6-1.6 1 0 1.8.1 2.7.4.8.3 1.8.7 2.9 1.2.3.2.7.3 1.2.3s1-.1 1.6-.3c.6-.2 1.1-.4 1.5-.6l1.2-.6c.4-.2.6-.3.7-.3.2 0 .4.1.6.3.2.1.3.3.3.5z"
     fill="#82aaff" />
</svg>
