<?xml version="1.0" encoding="UTF-8" standalone="no"?>
<svg
   xmlns:dc="http://purl.org/dc/elements/1.1/"
   xmlns:cc="http://creativecommons.org/ns#"
   xmlns:rdf="http://www.w3.org/1999/02/22-rdf-syntax-ns#"
   xmlns:svg="http://www.w3.org/2000/svg"
   xmlns="http://www.w3.org/2000/svg"
   xmlns:sodipodi="http://sodipodi.sourceforge.net/DTD/sodipodi-0.dtd"
   xmlns:inkscape="http://www.inkscape.org/namespaces/inkscape"
   inkscape:version="1.0 (4035a4fb49, 2020-05-01)"
   viewBox="0 0 32 32"
   version="1.1"
   id="svg415"
   sodipodi:docname="system-log-out.svg">
  <metadata
     id="metadata421">
    <rdf:RDF>
      <cc:Work
         rdf:about="">
        <dc:format>image/svg+xml</dc:format>
        <dc:type
           rdf:resource="http://purl.org/dc/dcmitype/StillImage" />
      </cc:Work>
    </rdf:RDF>
  </metadata>
  <defs
     id="defs419" />
  <sodipodi:namedview
     inkscape:document-rotation="0"
     inkscape:current-layer="svg415"
     inkscape:cy="16"
     inkscape:cx="16"
     inkscape:zoom="34.072848"
     showgrid="false"
     id="namedview417"
     inkscape:window-height="480"
     inkscape:window-width="640"
     inkscape:pageshadow="2"
     inkscape:pageopacity="0"
     guidetolerance="10"
     gridtolerance="10"
     objecttolerance="10"
     borderopacity="1"
     bordercolor="#666666"
     pagecolor="#ffffff" />
  <path
     id="path413"
     d="M13.7 24.8v1.1c0 .1-.1.2-.2.3-.1.1-.2.1-.3.1H8c-1.3 0-2.4-.5-3.3-1.4-.9-.9-1.4-2-1.4-3.3V10.3c0-1.3.5-2.4 1.4-3.3.9-.9 2-1.4 3.3-1.4h5.2c.1 0 .3.1.4.2.1.1.2.2.2.4v1.1c0 .1-.1.2-.2.3-.1.1-.2.1-.3.1H8c-.7.1-1.3.3-1.8.8s-.8 1.1-.8 1.8v11.3c0 .7.3 1.3.8 1.8.5.6 1.1.8 1.8.8h5.4l.1.1c.1 0 .1.1.1.1.1.2.1.3.1.4zM28.6 16c0 .3-.1.5-.3.7l-8.8 8.8c-.2.2-.4.3-.7.3-.3 0-.5-.1-.7-.3-.2-.2-.3-.4-.3-.7v-4.6h-7.2c-.3 0-.5-.1-.7-.3-.2-.2-.3-.4-.3-.7V13c0-.3.1-.5.3-.7.2-.2.4-.3.7-.3h7.2V7.2c0-.3.1-.5.3-.7.2-.2.4-.3.7-.3.3 0 .5.1.7.3l8.8 8.8c.2.2.3.4.3.7z"
     fill="#ff6363" />
</svg>
