<?xml version="1.0" encoding="UTF-8" standalone="no"?>
<svg
   xmlns:dc="http://purl.org/dc/elements/1.1/"
   xmlns:cc="http://creativecommons.org/ns#"
   xmlns:rdf="http://www.w3.org/1999/02/22-rdf-syntax-ns#"
   xmlns:svg="http://www.w3.org/2000/svg"
   xmlns="http://www.w3.org/2000/svg"
   xmlns:sodipodi="http://sodipodi.sourceforge.net/DTD/sodipodi-0.dtd"
   xmlns:inkscape="http://www.inkscape.org/namespaces/inkscape"
   inkscape:version="1.0 (4035a4fb49, 2020-05-01)"
   viewBox="0 0 32 32"
   version="1.1"
   id="svg445"
   sodipodi:docname="tab-close.svg">
  <metadata
     id="metadata451">
    <rdf:RDF>
      <cc:Work
         rdf:about="">
        <dc:format>image/svg+xml</dc:format>
        <dc:type
           rdf:resource="http://purl.org/dc/dcmitype/StillImage" />
      </cc:Work>
    </rdf:RDF>
  </metadata>
  <defs
     id="defs449" />
  <sodipodi:namedview
     pagecolor="#ffffff"
     bordercolor="#666666"
     borderopacity="1"
     objecttolerance="10"
     gridtolerance="10"
     guidetolerance="10"
     inkscape:pageopacity="0"
     inkscape:pageshadow="2"
     inkscape:window-width="640"
     inkscape:window-height="480"
     id="namedview447"
     showgrid="false"
     inkscape:zoom="50.545152"
     inkscape:cx="16"
     inkscape:cy="16"
     inkscape:current-layer="svg445"
     inkscape:document-rotation="0" />
  <path
     fill="#ff6363"
     d="M30.2 26.2c0 .3-.1.6-.3.9L28 29c-.2.2-.5.3-.9.3-.3 0-.6-.1-.9-.3l-3.9-4-3.9 3.9c-.2.2-.5.3-.9.3-.3 0-.6-.1-.9-.3l-1.8-1.8c-.2-.2-.3-.5-.3-.9s.1-.6.3-.9l3.9-3.9-3.8-3.8c-.3-.2-.4-.6-.4-.9s.1-.6.3-.9l1.9-1.7c.2-.2.5-.3.9-.3.3 0 .6.1.9.3l3.8 3.9 3.9-3.9c.2-.2.5-.3.9-.3.3 0 .6.1.9.3l1.8 1.8c.2.2.3.5.3.9 0 .3-.1.6-.3.9l-3.9 3.9 3.9 3.9c.3.1.4.4.4.7z"
     id="path441" />
  <path
     fill="#82aaff"
     d="M15.9 23.3l2-2-3.5-3.5c-.4-.3-.6-.8-.6-1.3s.2-.9.5-1.2l1.9-1.7c.3-.3.8-.5 1.3-.5s.9.2 1.2.5l3.5 3.5 2.1-2.1V6.6c0-.8-.7-1.5-1.5-1.5H14c-.8 0-1.5.7-1.5 1.5v3H2v12.2c0 .8.7 1.5 1.5 1.5h12.4z"
     id="path443" />
</svg>
