<?xml version="1.0" encoding="UTF-8" standalone="no"?>
<svg
   xmlns:dc="http://purl.org/dc/elements/1.1/"
   xmlns:cc="http://creativecommons.org/ns#"
   xmlns:rdf="http://www.w3.org/1999/02/22-rdf-syntax-ns#"
   xmlns:svg="http://www.w3.org/2000/svg"
   xmlns="http://www.w3.org/2000/svg"
   xmlns:sodipodi="http://sodipodi.sourceforge.net/DTD/sodipodi-0.dtd"
   xmlns:inkscape="http://www.inkscape.org/namespaces/inkscape"
   inkscape:version="1.0 (4035a4fb49, 2020-05-01)"
   viewBox="0 0 32 32"
   version="1.1"
   id="svg54"
   sodipodi:docname="task-complete.svg">
  <metadata
     id="metadata60">
    <rdf:RDF>
      <cc:Work
         rdf:about="">
        <dc:format>image/svg+xml</dc:format>
        <dc:type
           rdf:resource="http://purl.org/dc/dcmitype/StillImage" />
      </cc:Work>
    </rdf:RDF>
  </metadata>
  <defs
     id="defs58" />
  <sodipodi:namedview
     inkscape:document-rotation="0"
     inkscape:current-layer="svg54"
     inkscape:cy="16"
     inkscape:cx="16"
     inkscape:zoom="34.072848"
     showgrid="false"
     id="namedview56"
     inkscape:window-height="480"
     inkscape:window-width="640"
     inkscape:pageshadow="2"
     inkscape:pageopacity="0"
     guidetolerance="10"
     gridtolerance="10"
     objecttolerance="10"
     borderopacity="1"
     bordercolor="#666666"
     pagecolor="#ffffff" />
  <path
     id="path52"
     fill="#addb67"
     d="M22.479 23.025l-2.313 2.313c-.308.308-.616.462-1.079.462s-.77-.154-1.079-.462l-2.158-2.159-5.858-5.857c-.308-.308-.462-.617-.462-1.08 0-.462.154-.77.462-1.078l2.159-2.158c.308-.309.616-.463 1.079-.463.462 0 .77.154 1.079.463l4.778 4.778L29.22 7.36V4.055c0-.55-.45-1-1-1H3.78c-.55 0-1 .45-1 1v23.89c0 .55.45 1 1 1h24.44c.55 0 1-.45 1-1v-11.66l-6.74 6.74z" />
</svg>
