<?xml version="1.0" encoding="UTF-8" standalone="no"?>
<svg
   xmlns:dc="http://purl.org/dc/elements/1.1/"
   xmlns:cc="http://creativecommons.org/ns#"
   xmlns:rdf="http://www.w3.org/1999/02/22-rdf-syntax-ns#"
   xmlns:svg="http://www.w3.org/2000/svg"
   xmlns="http://www.w3.org/2000/svg"
   xmlns:sodipodi="http://sodipodi.sourceforge.net/DTD/sodipodi-0.dtd"
   xmlns:inkscape="http://www.inkscape.org/namespaces/inkscape"
   inkscape:version="1.0 (4035a4fb49, 2020-05-01)"
   viewBox="0 0 32 32"
   version="1.1"
   id="svg472"
   sodipodi:docname="task-reject.svg">
  <metadata
     id="metadata478">
    <rdf:RDF>
      <cc:Work
         rdf:about="">
        <dc:format>image/svg+xml</dc:format>
        <dc:type
           rdf:resource="http://purl.org/dc/dcmitype/StillImage" />
      </cc:Work>
    </rdf:RDF>
  </metadata>
  <defs
     id="defs476" />
  <sodipodi:namedview
     inkscape:document-rotation="0"
     inkscape:current-layer="svg472"
     inkscape:cy="16"
     inkscape:cx="16"
     inkscape:zoom="34.072848"
     showgrid="false"
     id="namedview474"
     inkscape:window-height="480"
     inkscape:window-width="640"
     inkscape:pageshadow="2"
     inkscape:pageopacity="0"
     guidetolerance="10"
     gridtolerance="10"
     objecttolerance="10"
     borderopacity="1"
     bordercolor="#666666"
     pagecolor="#ffffff" />
  <path
     id="path470"
     fill="#ff6363"
     d="M28.219 3.055H3.78c-.55 0-1 .45-1 1v23.89c0 .55.45 1 1 1h24.44c.55 0 1-.45 1-1V4.055c0-.55-.45-1-1-1zm-3.191 17.738c.32.32.479.64.479 1.119 0 .32-.16.799-.48.959l-2.236 2.236c-.32.32-.64.48-1.119.48-.48 0-.799-.16-1.118-.48l-4.634-4.633-4.634 4.633c-.32.32-.639.48-1.118.48-.48 0-.799-.16-1.118-.48l-2.237-2.236c-.32-.32-.48-.64-.48-1.119 0-.48.16-.799.48-1.118L11.446 16l-4.633-4.634c-.32-.32-.48-.639-.48-1.118 0-.48.16-.799.48-1.119L9.05 6.893c.32-.32.639-.48 1.118-.48.48 0 .799.16 1.119.48l4.633 4.633 4.794-4.474c.32-.32.639-.479 1.118-.479.48 0 .799.16 1.118.48l2.237 2.236c.32.32.48.64.48 1.119s-.16.799-.48 1.118l-4.633 4.634 4.474 4.633z" />
</svg>
