<?xml version="1.0" encoding="UTF-8" standalone="no"?>
<svg
   xmlns:dc="http://purl.org/dc/elements/1.1/"
   xmlns:cc="http://creativecommons.org/ns#"
   xmlns:rdf="http://www.w3.org/1999/02/22-rdf-syntax-ns#"
   xmlns:svg="http://www.w3.org/2000/svg"
   xmlns="http://www.w3.org/2000/svg"
   xmlns:sodipodi="http://sodipodi.sourceforge.net/DTD/sodipodi-0.dtd"
   xmlns:inkscape="http://www.inkscape.org/namespaces/inkscape"
   inkscape:version="1.0 (4035a4fb49, 2020-05-01)"
   viewBox="0 0 32 32"
   version="1.1"
   id="svg727"
   sodipodi:docname="task-attention.svg">
  <metadata
     id="metadata733">
    <rdf:RDF>
      <cc:Work
         rdf:about="">
        <dc:format>image/svg+xml</dc:format>
        <dc:type
           rdf:resource="http://purl.org/dc/dcmitype/StillImage" />
      </cc:Work>
    </rdf:RDF>
  </metadata>
  <defs
     id="defs731" />
  <sodipodi:namedview
     inkscape:document-rotation="0"
     inkscape:current-layer="svg727"
     inkscape:cy="16"
     inkscape:cx="16"
     inkscape:zoom="34.072848"
     showgrid="false"
     id="namedview729"
     inkscape:window-height="480"
     inkscape:window-width="640"
     inkscape:pageshadow="2"
     inkscape:pageopacity="0"
     guidetolerance="10"
     gridtolerance="10"
     objecttolerance="10"
     borderopacity="1"
     bordercolor="#666666"
     pagecolor="#ffffff" />
  <path
     id="path725"
     d="M17.7 4.6l11.5 21.1c.3.6.3 1.3 0 1.9-.2.3-.4.5-.7.7-.3.2-.6.3-.9.3h-23c-.3 0-.7-.1-.9-.3s-.7-.5-.8-.8c-.4-.6-.4-1.3 0-1.9l11.4-21c.2-.3.4-.6.7-.8.3-.2.6-.3 1-.3.3 0 .7.1 1 .3.3.2.5.5.7.8zm.2 13.9l.3-6.9c0-.1 0-.2-.1-.3-.1-.1-.2-.2-.4-.2h-3.3c-.1 0-.2.1-.4.2-.1.1-.1.2-.1.3l.3 6.8c0 .1 0 .2.1.2.1.1.2.1.4.1h2.8c.1 0 .3 0 .4-.1-.1.1 0 0 0-.1zm0 5.6v-2.8c0-.1 0-.3-.1-.4-.1-.1-.2-.1-.3-.1h-2.9c-.1 0-.2 0-.3.1-.1.1-.1.2-.1.4v2.8c0 .1 0 .3.1.4.1.1.2.1.3.1h2.9c.1 0 .2 0 .3-.1.1-.1.1-.2.1-.4z"
     fill="#f78c6c" />
</svg>
