<?xml version="1.0" encoding="UTF-8" standalone="no"?>
<svg
   xmlns:dc="http://purl.org/dc/elements/1.1/"
   xmlns:cc="http://creativecommons.org/ns#"
   xmlns:rdf="http://www.w3.org/1999/02/22-rdf-syntax-ns#"
   xmlns:svg="http://www.w3.org/2000/svg"
   xmlns="http://www.w3.org/2000/svg"
   xmlns:sodipodi="http://sodipodi.sourceforge.net/DTD/sodipodi-0.dtd"
   xmlns:inkscape="http://www.inkscape.org/namespaces/inkscape"
   inkscape:version="1.0 (4035a4fb49, 2020-05-01)"
   viewBox="0 0 32 32"
   version="1.1"
   id="svg125"
   sodipodi:docname="task-ongoing.svg">
  <metadata
     id="metadata131">
    <rdf:RDF>
      <cc:Work
         rdf:about="">
        <dc:format>image/svg+xml</dc:format>
        <dc:type
           rdf:resource="http://purl.org/dc/dcmitype/StillImage" />
      </cc:Work>
    </rdf:RDF>
  </metadata>
  <defs
     id="defs129" />
  <sodipodi:namedview
     inkscape:document-rotation="0"
     inkscape:current-layer="svg125"
     inkscape:cy="16"
     inkscape:cx="16"
     inkscape:zoom="34.072848"
     showgrid="false"
     id="namedview127"
     inkscape:window-height="480"
     inkscape:window-width="640"
     inkscape:pageshadow="2"
     inkscape:pageopacity="0"
     guidetolerance="10"
     gridtolerance="10"
     objecttolerance="10"
     borderopacity="1"
     bordercolor="#666666"
     pagecolor="#ffffff" />
  <path
     id="path123"
     fill="#82aaff"
     d="M21.878 24.367l-2.312 2.312c-.308.308-.616.462-1.079.462s-.77-.154-1.079-.462l-2.158-2.158-5.858-5.858c-.308-.308-.462-.616-.462-1.079 0-.462.154-.77.462-1.079l2.159-2.158c.308-.308.616-.462 1.079-.462s.77.154 1.079.462l4.778 4.779 10.27-10.567c-2.564-4.386-7.31-7.34-12.757-7.34C7.837 1.219 1.219 7.837 1.219 16S7.837 30.781 16 30.781 30.781 24.163 30.781 16c0-.172-.02-.34-.026-.51l-8.877 8.877z" />
</svg>
