<?xml version="1.0" encoding="UTF-8" standalone="no"?>
<svg
   xmlns:dc="http://purl.org/dc/elements/1.1/"
   xmlns:cc="http://creativecommons.org/ns#"
   xmlns:rdf="http://www.w3.org/1999/02/22-rdf-syntax-ns#"
   xmlns:svg="http://www.w3.org/2000/svg"
   xmlns="http://www.w3.org/2000/svg"
   xmlns:sodipodi="http://sodipodi.sourceforge.net/DTD/sodipodi-0.dtd"
   xmlns:inkscape="http://www.inkscape.org/namespaces/inkscape"
   inkscape:version="1.0 (4035a4fb49, 2020-05-01)"
   viewBox="0 0 32 32"
   version="1.1"
   id="svg498"
   sodipodi:docname="tools-report-bug.svg">
  <metadata
     id="metadata504">
    <rdf:RDF>
      <cc:Work
         rdf:about="">
        <dc:format>image/svg+xml</dc:format>
        <dc:type
           rdf:resource="http://purl.org/dc/dcmitype/StillImage" />
      </cc:Work>
    </rdf:RDF>
  </metadata>
  <defs
     id="defs502" />
  <sodipodi:namedview
     inkscape:document-rotation="0"
     inkscape:current-layer="svg498"
     inkscape:cy="16"
     inkscape:cx="16"
     inkscape:zoom="34.072848"
     showgrid="false"
     id="namedview500"
     inkscape:window-height="480"
     inkscape:window-width="640"
     inkscape:pageshadow="2"
     inkscape:pageopacity="0"
     guidetolerance="10"
     gridtolerance="10"
     objecttolerance="10"
     borderopacity="1"
     bordercolor="#666666"
     pagecolor="#ffffff" />
  <path
     id="path496"
     d="M26.5 16.9c.2.2.3.4.3.6 0 .2-.1.4-.3.6-.2.2-.4.3-.6.3h-3c0 1.5-.3 2.8-.9 3.9l2.8 2.8c.2.2.3.4.3.6 0 .2-.1.4-.3.6-.2.2-.4.3-.6.3s-.4-.1-.6-.3l-2.7-2.6-.2.2c-.1.1-.3.2-.6.4s-.6.3-.9.5c-.3.1-.7.3-1.1.4-.4.1-.9.2-1.3.2v-12h-1.7v12c-.5 0-.9-.1-1.4-.2s-.8-.3-1.2-.4c-.3-.2-.6-.3-.9-.5-.3-.2-.5-.3-.6-.4v-.5l-2.5 2.8c-.2.2-.4.3-.6.3-.2 0-.4-.1-.6-.2-.2-.2-.3-.4-.3-.6 0-.2.1-.4.2-.6l2.7-3c-.5-1-.8-2.2-.8-3.7h-3c-.2 0-.4-.1-.6-.3-.2-.2-.3-.4-.3-.6 0-.2.1-.4.3-.6.2-.2.4-.3.6-.3h3v-3.9l-2.3-2.3c-.1-.2-.2-.4-.2-.6 0-.2.1-.4.3-.6.1-.2.3-.3.5-.3.3 0 .5.1.6.3l2.3 2.3h11.3L24 9.2c.2-.2.4-.3.6-.3.2 0 .4.1.6.3.2.2.3.4.3.6 0 .2-.1.4-.3.6l-2.3 2.3v3.9h3c.2 0 .4.1.6.3zm-6.2-7.1h-8.6c0-1.2.4-2.2 1.3-3s1.8-1.3 3-1.3 2.2.4 3 1.3 1.3 1.8 1.3 3z"
     fill="#ff6363" />
</svg>
