<?xml version="1.0" encoding="UTF-8" standalone="no"?>
<svg
   xmlns:dc="http://purl.org/dc/elements/1.1/"
   xmlns:cc="http://creativecommons.org/ns#"
   xmlns:rdf="http://www.w3.org/1999/02/22-rdf-syntax-ns#"
   xmlns:svg="http://www.w3.org/2000/svg"
   xmlns="http://www.w3.org/2000/svg"
   xmlns:sodipodi="http://sodipodi.sourceforge.net/DTD/sodipodi-0.dtd"
   xmlns:inkscape="http://www.inkscape.org/namespaces/inkscape"
   inkscape:version="1.0 (4035a4fb49, 2020-05-01)"
   viewBox="0 0 32 32"
   version="1.1"
   id="svg524"
   sodipodi:docname="unavailable.svg">
  <metadata
     id="metadata530">
    <rdf:RDF>
      <cc:Work
         rdf:about="">
        <dc:format>image/svg+xml</dc:format>
        <dc:type
           rdf:resource="http://purl.org/dc/dcmitype/StillImage" />
      </cc:Work>
    </rdf:RDF>
  </metadata>
  <defs
     id="defs528" />
  <sodipodi:namedview
     inkscape:document-rotation="0"
     inkscape:current-layer="svg524"
     inkscape:cy="16"
     inkscape:cx="16"
     inkscape:zoom="34.072848"
     showgrid="false"
     id="namedview526"
     inkscape:window-height="480"
     inkscape:window-width="640"
     inkscape:pageshadow="2"
     inkscape:pageopacity="0"
     guidetolerance="10"
     gridtolerance="10"
     objecttolerance="10"
     borderopacity="1"
     bordercolor="#666666"
     pagecolor="#ffffff" />
  <path
     id="path522"
     d="M26.5 9.9c1.1 1.9 1.6 3.9 1.6 6.1s-.5 4.2-1.6 6.1c-1.1 1.9-2.6 3.3-4.4 4.4-1.9 1.1-3.9 1.6-6.1 1.6s-4.2-.5-6.1-1.6c-1.9-1.1-3.3-2.6-4.4-4.4-1.1-1.9-1.6-3.9-1.6-6.1s.5-4.2 1.6-6.1C6.6 8 8.1 6.6 9.9 5.5c1.9-1.1 3.9-1.6 6.1-1.6s4.2.5 6.1 1.6c1.8 1.1 3.3 2.6 4.4 4.4zM22 19.6c0-.3-.1-.5-.3-.7L18.9 16l2.9-2.9c.2-.2.3-.4.3-.7 0-.3-.1-.5-.3-.7l-1.4-1.4c-.2-.2-.4-.3-.7-.3-.3 0-.5.1-.7.3l-3 2.8-2.9-2.9c-.2-.2-.4-.3-.7-.3-.3 0-.5.1-.7.3l-1.4 1.4c-.2.2-.3.4-.3.7 0 .3.1.5.3.7l2.9 2.9-2.9 2.9c-.2.2-.3.4-.3.7 0 .3.1.5.3.7l1.4 1.4c.2.2.4.3.7.3.3 0 .5-.1.7-.3l2.9-2.9 2.9 2.9c.2.2.4.3.7.3.3 0 .5-.1.7-.3l1.4-1.4c.2-.1.3-.4.3-.6z"
     fill="#ff6363" />
</svg>
