<?xml version="1.0" encoding="UTF-8" standalone="no"?>
<svg
   xmlns:dc="http://purl.org/dc/elements/1.1/"
   xmlns:cc="http://creativecommons.org/ns#"
   xmlns:rdf="http://www.w3.org/1999/02/22-rdf-syntax-ns#"
   xmlns:svg="http://www.w3.org/2000/svg"
   xmlns="http://www.w3.org/2000/svg"
   xmlns:sodipodi="http://sodipodi.sourceforge.net/DTD/sodipodi-0.dtd"
   xmlns:inkscape="http://www.inkscape.org/namespaces/inkscape"
   inkscape:version="1.0 (4035a4fb49, 2020-05-01)"
   viewBox="0 0 32 32"
   version="1.1"
   id="svg121"
   sodipodi:docname="view-refresh.svg">
  <metadata
     id="metadata127">
    <rdf:RDF>
      <cc:Work
         rdf:about="">
        <dc:format>image/svg+xml</dc:format>
        <dc:type
           rdf:resource="http://purl.org/dc/dcmitype/StillImage" />
      </cc:Work>
    </rdf:RDF>
  </metadata>
  <defs
     id="defs125" />
  <sodipodi:namedview
     inkscape:document-rotation="0"
     inkscape:current-layer="svg121"
     inkscape:cy="16"
     inkscape:cx="16"
     inkscape:zoom="34.072848"
     showgrid="false"
     id="namedview123"
     inkscape:window-height="480"
     inkscape:window-width="640"
     inkscape:pageshadow="2"
     inkscape:pageopacity="0"
     guidetolerance="10"
     gridtolerance="10"
     objecttolerance="10"
     borderopacity="1"
     bordercolor="#666666"
     pagecolor="#ffffff" />
  <path
     id="path119"
     d="M26 18.1c0 .1-.1.1 0 0-.6 2.5-1.8 4.4-3.6 5.9s-4 2.2-6.4 2.2c-1.3 0-2.6-.2-3.8-.7s-2.3-1.2-3.3-2.1l-1.7 1.7c-.2.2-.4.3-.6.3-.2 0-.4-.1-.6-.3s-.3-.4-.3-.6v-6c0-.2.1-.4.3-.6s.4-.3.6-.3h6c.2 0 .4.1.6.3.2.2.3.4.3.6 0 .2-.1.4-.3.6L11.3 21c.6.6 1.4 1 2.2 1.4.8.3 1.6.5 2.5.5 1.2 0 2.3-.3 3.3-.9 1-.6 1.9-1.4 2.5-2.4.1-.2.3-.7.7-1.6.1-.2.2-.3.4-.3h2.6c.1 0 .2 0 .3.1.1.1.2.2.2.3zm.3-10.7v6c0 .2-.1.4-.3.6s-.4.3-.6.3h-6c-.2 0-.4-.1-.6-.3-.2-.2-.3-.4-.3-.6 0-.2.1-.4.3-.6l1.8-1.8c-1.3-1.2-2.9-1.8-4.7-1.8-1.2 0-2.3.3-3.3.9-1 .6-1.9 1.4-2.5 2.4-.1.2-.3.7-.7 1.6-.1.2-.2.3-.4.3H6.4c-.1 0-.2 0-.3-.1-.1-.2-.1-.3-.1-.4v-.1c.6-2.4 1.8-4.3 3.6-5.8s4-2.2 6.4-2.2c1.3 0 2.6.2 3.8.7 1.2.5 2.3 1.2 3.3 2.1l1.7-1.7c.2-.2.4-.3.6-.3.2 0 .4.1.6.3.2.1.3.3.3.5z"
     fill="#addb67" />
</svg>
