<?xml version="1.0" encoding="UTF-8" standalone="no"?>
<svg
   xmlns:dc="http://purl.org/dc/elements/1.1/"
   xmlns:cc="http://creativecommons.org/ns#"
   xmlns:rdf="http://www.w3.org/1999/02/22-rdf-syntax-ns#"
   xmlns:svg="http://www.w3.org/2000/svg"
   xmlns="http://www.w3.org/2000/svg"
   xmlns:sodipodi="http://sodipodi.sourceforge.net/DTD/sodipodi-0.dtd"
   xmlns:inkscape="http://www.inkscape.org/namespaces/inkscape"
   inkscape:version="1.0 (4035a4fb49, 2020-05-01)"
   viewBox="0 0 32 32"
   version="1.1"
   id="svg342"
   sodipodi:docname="view-preview.svg">
  <metadata
     id="metadata348">
    <rdf:RDF>
      <cc:Work
         rdf:about="">
        <dc:format>image/svg+xml</dc:format>
        <dc:type
           rdf:resource="http://purl.org/dc/dcmitype/StillImage" />
      </cc:Work>
    </rdf:RDF>
  </metadata>
  <defs
     id="defs346" />
  <sodipodi:namedview
     inkscape:document-rotation="0"
     inkscape:current-layer="svg342"
     inkscape:cy="16"
     inkscape:cx="16"
     inkscape:zoom="34.072848"
     showgrid="false"
     id="namedview344"
     inkscape:window-height="480"
     inkscape:window-width="640"
     inkscape:pageshadow="2"
     inkscape:pageopacity="0"
     guidetolerance="10"
     gridtolerance="10"
     objecttolerance="10"
     borderopacity="1"
     bordercolor="#666666"
     pagecolor="#ffffff" />
  <path
     id="path340"
     d="M28.9 7.9v16.3c0 .6-.2 1.1-.6 1.5-.4.4-.9.6-1.5.6H5.3c-.6 0-1.1-.2-1.5-.6-.4-.4-.6-.9-.6-1.5V7.9c0-.6.2-1.1.6-1.5.4-.4.9-.6 1.5-.6h21.4c.6 0 1.1.2 1.5.6.4.4.7.9.7 1.5zm-2.2-.5H5.3c-.1 0-.2 0-.3.1s-.1.2-.1.4v16.3c0 .1 0 .2.1.3.1.1.2.1.3.1h21.4c.1 0 .2 0 .3-.1.1-.1.1-.2.1-.3V7.9c0-.1 0-.2-.1-.3s-.2-.2-.3-.2zM11 9.9c.5.5.8 1.1.8 1.8s-.3 1.3-.8 1.8-1.1.8-1.8.8-1.4-.3-1.9-.8-.8-1.1-.8-1.8.2-1.3.8-1.8c.5-.5 1.1-.8 1.8-.8s1.4.3 1.9.8zm14.4 7v6H6.6v-2.6l4.3-4.3 2.1 2.1 6.9-6.9 5.5 5.7z"
     fill="#82aaff" />
</svg>
