<?xml version="1.0" encoding="UTF-8" standalone="no"?>
<svg
   xmlns:dc="http://purl.org/dc/elements/1.1/"
   xmlns:cc="http://creativecommons.org/ns#"
   xmlns:rdf="http://www.w3.org/1999/02/22-rdf-syntax-ns#"
   xmlns:svg="http://www.w3.org/2000/svg"
   xmlns="http://www.w3.org/2000/svg"
   xmlns:sodipodi="http://sodipodi.sourceforge.net/DTD/sodipodi-0.dtd"
   xmlns:inkscape="http://www.inkscape.org/namespaces/inkscape"
   inkscape:version="1.0 (4035a4fb49, 2020-05-01)"
   viewBox="0 0 32 32"
   version="1.1"
   id="svg409"
   sodipodi:docname="wallet-open.svg">
  <metadata
     id="metadata415">
    <rdf:RDF>
      <cc:Work
         rdf:about="">
        <dc:format>image/svg+xml</dc:format>
        <dc:type
           rdf:resource="http://purl.org/dc/dcmitype/StillImage" />
      </cc:Work>
    </rdf:RDF>
  </metadata>
  <defs
     id="defs413" />
  <sodipodi:namedview
     inkscape:document-rotation="0"
     inkscape:current-layer="svg409"
     inkscape:cy="16"
     inkscape:cx="16"
     inkscape:zoom="34.072848"
     showgrid="false"
     id="namedview411"
     inkscape:window-height="480"
     inkscape:window-width="640"
     inkscape:pageshadow="2"
     inkscape:pageopacity="0"
     guidetolerance="10"
     gridtolerance="10"
     objecttolerance="10"
     borderopacity="1"
     bordercolor="#666666"
     pagecolor="#ffffff" />
  <path
     id="path407"
     d="M27.5 7.1c.5 0 .9.2 1.3.5.4.4.5.8.5 1.4v2.6H2.7V9c0-.5.2-.9.5-1.3.4-.4.8-.6 1.3-.6h23zM2.7 23v-7h26.7v7c0 .5-.2.9-.5 1.3-.4.4-.8.5-1.3.5h-23c-.5 0-.9-.2-1.3-.5-.5-.3-.6-.7-.6-1.3zm2.9-2.6v1.5h3v-1.5h-3zm4.5 0v1.5h4.4v-1.5h-4.4z"
     fill="#82aaff" />
</svg>
