<?xml version="1.0" encoding="UTF-8" standalone="no"?>
<svg
   xmlns:dc="http://purl.org/dc/elements/1.1/"
   xmlns:cc="http://creativecommons.org/ns#"
   xmlns:rdf="http://www.w3.org/1999/02/22-rdf-syntax-ns#"
   xmlns:svg="http://www.w3.org/2000/svg"
   xmlns="http://www.w3.org/2000/svg"
   xmlns:sodipodi="http://sodipodi.sourceforge.net/DTD/sodipodi-0.dtd"
   xmlns:inkscape="http://www.inkscape.org/namespaces/inkscape"
   inkscape:version="1.0 (4035a4fb49, 2020-05-01)"
   sodipodi:docname="completed.svg"
   id="svg88"
   version="1.1"
   viewBox="0 0 23.2 27.3">
  <metadata
     id="metadata94">
    <rdf:RDF>
      <cc:Work
         rdf:about="">
        <dc:format>image/svg+xml</dc:format>
        <dc:type
           rdf:resource="http://purl.org/dc/dcmitype/StillImage" />
      </cc:Work>
    </rdf:RDF>
  </metadata>
  <defs
     id="defs92" />
  <sodipodi:namedview
     inkscape:document-rotation="0"
     inkscape:current-layer="svg88"
     inkscape:cy="13.65"
     inkscape:cx="11.6"
     inkscape:zoom="39.93887"
     showgrid="false"
     id="namedview90"
     inkscape:window-height="480"
     inkscape:window-width="640"
     inkscape:pageshadow="2"
     inkscape:pageopacity="0"
     guidetolerance="10"
     gridtolerance="10"
     objecttolerance="10"
     borderopacity="1"
     bordercolor="#666666"
     pagecolor="#ffffff" />
  <path
     id="path86"
     fill="#82aaff"
     d="M22.7 9.2L11.9 20l-2 2c-.2.2-.7.4-1 .4-.4 0-.7-.2-1-.4l-2-2-5.4-5.4c-.3-.3-.5-.7-.5-1.1 0-.4.2-.7.4-1l2-2c.2-.2.7-.4 1-.4.4 0 .7.2 1 .4l4.4 4.4 9.8-9.7c.2-.2.7-.4 1-.4.4 0 .7.2 1 .4l2 2c.4.2.6.6.6 1-.1.4-.2.7-.5 1z" />
</svg>
