<?xml version="1.0" encoding="UTF-8" standalone="no"?>
<svg
   xmlns:dc="http://purl.org/dc/elements/1.1/"
   xmlns:cc="http://creativecommons.org/ns#"
   xmlns:rdf="http://www.w3.org/1999/02/22-rdf-syntax-ns#"
   xmlns:svg="http://www.w3.org/2000/svg"
   xmlns="http://www.w3.org/2000/svg"
   xmlns:sodipodi="http://sodipodi.sourceforge.net/DTD/sodipodi-0.dtd"
   xmlns:inkscape="http://www.inkscape.org/namespaces/inkscape"
   inkscape:version="1.0 (4035a4fb49, 2020-05-01)"
   sodipodi:docname="connected.svg"
   id="svg197"
   version="1.1"
   viewBox="0 0 32 32">
  <metadata
     id="metadata203">
    <rdf:RDF>
      <cc:Work
         rdf:about="">
        <dc:format>image/svg+xml</dc:format>
        <dc:type
           rdf:resource="http://purl.org/dc/dcmitype/StillImage" />
      </cc:Work>
    </rdf:RDF>
  </metadata>
  <defs
     id="defs201" />
  <sodipodi:namedview
     inkscape:document-rotation="0"
     inkscape:current-layer="svg197"
     inkscape:cy="16"
     inkscape:cx="16"
     inkscape:zoom="34.072848"
     showgrid="false"
     id="namedview199"
     inkscape:window-height="480"
     inkscape:window-width="640"
     inkscape:pageshadow="2"
     inkscape:pageopacity="0"
     guidetolerance="10"
     gridtolerance="10"
     objecttolerance="10"
     borderopacity="1"
     bordercolor="#666666"
     pagecolor="#ffffff" />
  <path
     id="path195"
     d="M25.1 17.3l4.2-4.2c.8-.8.8-2 0-2.8-.8-.8-2-.8-2.8 0l-4.2 4.2-4.7-4.7 4.2-4.2c.8-.8.8-2 0-2.8-.8-.8-2-.8-2.8 0L14.8 7l-2.3-2.3-3.8 3.5c-3.4 3.4-4 8.6-1.8 12.6L3 24.7c-1.2 1.2-1.2 3.1 0 4.2.6.6 1.4.9 2.1.9.8 0 1.5-.3 2.1-.9l3.9-3.9c4 2.2 9.2 1.6 12.6-1.8l3.6-3.6-2.2-2.3z"
     fill="#addb67" />
</svg>
