<?xml version="1.0" encoding="UTF-8" standalone="no"?>
<svg
   xmlns:dc="http://purl.org/dc/elements/1.1/"
   xmlns:cc="http://creativecommons.org/ns#"
   xmlns:rdf="http://www.w3.org/1999/02/22-rdf-syntax-ns#"
   xmlns:svg="http://www.w3.org/2000/svg"
   xmlns="http://www.w3.org/2000/svg"
   xmlns:sodipodi="http://sodipodi.sourceforge.net/DTD/sodipodi-0.dtd"
   xmlns:inkscape="http://www.inkscape.org/namespaces/inkscape"
   inkscape:version="1.0 (4035a4fb49, 2020-05-01)"
   sodipodi:docname="downloading.svg"
   id="svg410"
   version="1.1"
   viewBox="0 0 20.7 25.8">
  <metadata
     id="metadata416">
    <rdf:RDF>
      <cc:Work
         rdf:about="">
        <dc:format>image/svg+xml</dc:format>
        <dc:type
           rdf:resource="http://purl.org/dc/dcmitype/StillImage" />
      </cc:Work>
    </rdf:RDF>
  </metadata>
  <defs
     id="defs414" />
  <sodipodi:namedview
     inkscape:document-rotation="0"
     inkscape:current-layer="svg410"
     inkscape:cy="12.9"
     inkscape:cx="10.35"
     inkscape:zoom="42.260898"
     showgrid="false"
     id="namedview412"
     inkscape:window-height="480"
     inkscape:window-width="640"
     inkscape:pageshadow="2"
     inkscape:pageopacity="0"
     guidetolerance="10"
     gridtolerance="10"
     objecttolerance="10"
     borderopacity="1"
     bordercolor="#666666"
     pagecolor="#ffffff" />
  <path
     id="path408"
     fill="#addb67"
     d="M20.2 14.4l-9 9c-.3.3-.5.4-.9.4s-.7-.1-.9-.4l-9-9c-.4-.4-.5-.8-.3-1.5.3-.5.7-.8 1.2-.8h5.2V3.3c0-.4.1-.7.4-.9.3-.3.5-.4.9-.4H13c.4 0 .7.1.9.4.2.2.4.5.4.9v9h5.2c.5-.1.9.1 1.1.7.2.5 0 1-.4 1.4z" />
</svg>
