<?xml version="1.0" encoding="UTF-8" standalone="no"?>
<svg
   xmlns:dc="http://purl.org/dc/elements/1.1/"
   xmlns:cc="http://creativecommons.org/ns#"
   xmlns:rdf="http://www.w3.org/1999/02/22-rdf-syntax-ns#"
   xmlns:svg="http://www.w3.org/2000/svg"
   xmlns="http://www.w3.org/2000/svg"
   xmlns:sodipodi="http://sodipodi.sourceforge.net/DTD/sodipodi-0.dtd"
   xmlns:inkscape="http://www.inkscape.org/namespaces/inkscape"
   inkscape:version="1.0 (4035a4fb49, 2020-05-01)"
   width="21.781"
   height="25.6"
   viewBox="0 0 21.782 25.6"
   version="1.1"
   id="svg642"
   sodipodi:docname="error.svg">
  <metadata
     id="metadata648">
    <rdf:RDF>
      <cc:Work
         rdf:about="">
        <dc:format>image/svg+xml</dc:format>
        <dc:type
           rdf:resource="http://purl.org/dc/dcmitype/StillImage" />
      </cc:Work>
    </rdf:RDF>
  </metadata>
  <defs
     id="defs646" />
  <sodipodi:namedview
     inkscape:document-rotation="0"
     inkscape:current-layer="svg642"
     inkscape:cy="12.8"
     inkscape:cx="10.8905"
     inkscape:zoom="42.591059"
     showgrid="false"
     id="namedview644"
     inkscape:window-height="480"
     inkscape:window-width="640"
     inkscape:pageshadow="2"
     inkscape:pageopacity="0"
     guidetolerance="10"
     gridtolerance="10"
     objecttolerance="10"
     borderopacity="1"
     bordercolor="#666666"
     pagecolor="#ffffff" />
  <path
     id="path640"
     d="M13.671 21.7c0 .2-.1.4-.3.6-.2.2-.4.3-.6.3h-3.5c-.2 0-.4-.1-.6-.3-.2-.2-.3-.4-.3-.6v-3.1c0-.2.1-.4.3-.6.2-.2.4-.3.6-.3h3.5c.2 0 .4.1.6.3.2.2.3.4.3.6zm0-7.1c0 .2-.1.4-.3.6-.2.2-.4.3-.6.3h-3.5c-.2 0-.5-.1-.6-.3-.2-.2-.3-.4-.3-.6l-.5-10.7c0-.2.1-.4.2-.6.2-.2.4-.3.6-.3h4.4c.2 0 .4.1.6.3.2.2.3.4.2.6z"
     fill="#ff6363" />
</svg>
