<?xml version="1.0" encoding="UTF-8" standalone="no"?>
<svg
   xmlns:dc="http://purl.org/dc/elements/1.1/"
   xmlns:cc="http://creativecommons.org/ns#"
   xmlns:rdf="http://www.w3.org/1999/02/22-rdf-syntax-ns#"
   xmlns:svg="http://www.w3.org/2000/svg"
   xmlns="http://www.w3.org/2000/svg"
   xmlns:sodipodi="http://sodipodi.sourceforge.net/DTD/sodipodi-0.dtd"
   xmlns:inkscape="http://www.inkscape.org/namespaces/inkscape"
   inkscape:version="1.0 (4035a4fb49, 2020-05-01)"
   sodipodi:docname="filterinactive.svg"
   id="svg687"
   version="1.1"
   height="25.6"
   width="21.781"
   viewBox="0 0 21.781139 25.6">
  <metadata
     id="metadata693">
    <rdf:RDF>
      <cc:Work
         rdf:about="">
        <dc:format>image/svg+xml</dc:format>
        <dc:type
           rdf:resource="http://purl.org/dc/dcmitype/StillImage" />
      </cc:Work>
    </rdf:RDF>
  </metadata>
  <defs
     id="defs691" />
  <sodipodi:namedview
     inkscape:document-rotation="0"
     inkscape:current-layer="svg687"
     inkscape:cy="12.8"
     inkscape:cx="10.8905"
     inkscape:zoom="42.591059"
     showgrid="false"
     id="namedview689"
     inkscape:window-height="480"
     inkscape:window-width="640"
     inkscape:pageshadow="2"
     inkscape:pageopacity="0"
     guidetolerance="10"
     gridtolerance="10"
     objecttolerance="10"
     borderopacity="1"
     bordercolor="#666666"
     pagecolor="#ffffff" />
  <path
     id="path685"
     fill="#ff6363"
     d="M21.5 3.7l-7.6 7.5v11.4c0 .5-.2.7-.6.9-.1.1-.3.1-.4.1-.3 0-.6-.1-.7-.3l-4-4c-.2-.2-.3-.5-.3-.7v-7.5L.4 3.7C0 3.3-.1 2.9.1 2.6.3 2.2.6 2 1 2h19.7c.5 0 .7.3.9.6.3.4.2.7-.1 1.1z" />
</svg>
