<?xml version="1.0" encoding="UTF-8" standalone="no"?>
<svg
   xmlns:dc="http://purl.org/dc/elements/1.1/"
   xmlns:cc="http://creativecommons.org/ns#"
   xmlns:rdf="http://www.w3.org/1999/02/22-rdf-syntax-ns#"
   xmlns:svg="http://www.w3.org/2000/svg"
   xmlns="http://www.w3.org/2000/svg"
   xmlns:sodipodi="http://sodipodi.sourceforge.net/DTD/sodipodi-0.dtd"
   xmlns:inkscape="http://www.inkscape.org/namespaces/inkscape"
   inkscape:version="1.0 (4035a4fb49, 2020-05-01)"
   sodipodi:docname="queued.svg"
   id="svg67"
   version="1.1"
   height="25.5"
   width="21.5"
   viewBox="0 0 21.5 25.5">
  <metadata
     id="metadata73">
    <rdf:RDF>
      <cc:Work
         rdf:about="">
        <dc:format>image/svg+xml</dc:format>
        <dc:type
           rdf:resource="http://purl.org/dc/dcmitype/StillImage" />
      </cc:Work>
    </rdf:RDF>
  </metadata>
  <defs
     id="defs71" />
  <sodipodi:namedview
     inkscape:document-rotation="0"
     inkscape:current-layer="svg67"
     inkscape:cy="12.75"
     inkscape:cx="10.75"
     inkscape:zoom="42.758083"
     showgrid="false"
     id="namedview69"
     inkscape:window-height="480"
     inkscape:window-width="640"
     inkscape:pageshadow="2"
     inkscape:pageopacity="0"
     guidetolerance="10"
     gridtolerance="10"
     objecttolerance="10"
     borderopacity="1"
     bordercolor="#666666"
     pagecolor="#ffffff" />
  <path
     id="path65"
     fill="#7fdbca"
     d="M14.5 6.2c-1.2-.7-2.5-1-3.8-1-1.4 0-2.7.3-3.8 1-1.2.7-2.1 1.6-2.8 2.8-.7 1.2-1 2.5-1 3.8 0 1.4.3 2.7 1 3.8.7 1.2 1.6 2.1 2.8 2.8 1.2.7 2.5 1 3.8 1 1.4 0 2.7-.3 3.8-1 1.2-.7 2.1-1.6 2.8-2.8.7-1.2 1-2.5 1-3.8 0-1.4-.3-2.7-1-3.8-.7-1.2-1.6-2.1-2.8-2.8zm-2 8c0 .1 0 .2-.1.3-.1.1-.2.1-.3.1H7.6c-.1 0-.2 0-.3-.1-.1-.1-.1-.2-.1-.3v-.9c0-.1 0-.2.1-.3.1-.1.2-.1.3-.1h3.1v-5c0-.1 0-.2.1-.3.1-.1.2-.1.3-.1h.9c.1 0 .2 0 .3.1.1.1.1.2.1.3v6.3zm7.6 4c-1 1.7-2.3 3-3.9 3.9-1.7 1-3.5 1.4-5.4 1.4-2 0-3.8-.5-5.4-1.4-1.7-1-3-2.3-3.9-3.9-1-1.7-1.5-3.5-1.5-5.4 0-2 .5-3.8 1.5-5.4 1-1.7 2.3-3 3.9-3.9C7.1 2.5 8.9 2 10.8 2c2 0 3.8.5 5.4 1.5 1.6 1 3 2.3 3.9 3.9.9 1.6 1.4 3.5 1.4 5.4 0 2-.5 3.8-1.4 5.4z" />
</svg>
