<?xml version="1.0" encoding="UTF-8" standalone="no"?>
<svg
   xmlns:dc="http://purl.org/dc/elements/1.1/"
   xmlns:cc="http://creativecommons.org/ns#"
   xmlns:rdf="http://www.w3.org/1999/02/22-rdf-syntax-ns#"
   xmlns:svg="http://www.w3.org/2000/svg"
   xmlns="http://www.w3.org/2000/svg"
   xmlns:sodipodi="http://sodipodi.sourceforge.net/DTD/sodipodi-0.dtd"
   xmlns:inkscape="http://www.inkscape.org/namespaces/inkscape"
   inkscape:version="1.0 (4035a4fb49, 2020-05-01)"
   sodipodi:docname="uploading.svg"
   id="svg164"
   version="1.1"
   height="25.8"
   width="20.678"
   viewBox="0 0 20.678461 25.799999">
  <metadata
     id="metadata170">
    <rdf:RDF>
      <cc:Work
         rdf:about="">
        <dc:format>image/svg+xml</dc:format>
        <dc:type
           rdf:resource="http://purl.org/dc/dcmitype/StillImage" />
      </cc:Work>
    </rdf:RDF>
  </metadata>
  <defs
     id="defs168" />
  <sodipodi:namedview
     inkscape:document-rotation="0"
     inkscape:current-layer="svg164"
     inkscape:cy="12.9"
     inkscape:cx="10.339"
     inkscape:zoom="42.260898"
     showgrid="false"
     id="namedview166"
     inkscape:window-height="480"
     inkscape:window-width="640"
     inkscape:pageshadow="2"
     inkscape:pageopacity="0"
     guidetolerance="10"
     gridtolerance="10"
     objecttolerance="10"
     borderopacity="1"
     bordercolor="#666666"
     pagecolor="#ffffff" />
  <path
     id="path162"
     fill="#82aaff"
     d="M20.6 12.8c-.2.6-.6.8-1.1.7h-5.2v9c0 .4-.2.7-.4.9-.2.3-.5.4-.9.4H7.8c-.4 0-.6-.1-.9-.4-.3-.2-.4-.5-.4-.9v-8.8H1.3c-.5 0-.9-.3-1.2-.8-.2-.7-.1-1.1.3-1.5l9-9c.2-.3.5-.4.9-.4s.6.1.9.4l9 9c.4.4.6.9.4 1.4z" />
</svg>
