<?xml version="1.0" encoding="UTF-8" standalone="no"?>
<svg
   xmlns:dc="http://purl.org/dc/elements/1.1/"
   xmlns:cc="http://creativecommons.org/ns#"
   xmlns:rdf="http://www.w3.org/1999/02/22-rdf-syntax-ns#"
   xmlns:svg="http://www.w3.org/2000/svg"
   xmlns="http://www.w3.org/2000/svg"
   xmlns:sodipodi="http://sodipodi.sourceforge.net/DTD/sodipodi-0.dtd"
   xmlns:inkscape="http://www.inkscape.org/namespaces/inkscape"
   inkscape:version="1.0 (4035a4fb49, 2020-05-01)"
   viewBox="0 0 36.9 17.8"
   version="1.1"
   id="svg8"
   sodipodi:docname="slow_off.svg">
  <metadata
     id="metadata14">
    <rdf:RDF>
      <cc:Work
         rdf:about="">
        <dc:format>image/svg+xml</dc:format>
        <dc:type
           rdf:resource="http://purl.org/dc/dcmitype/StillImage" />
      </cc:Work>
    </rdf:RDF>
  </metadata>
  <defs
     id="defs12" />
  <sodipodi:namedview
     inkscape:document-rotation="0"
     inkscape:current-layer="svg8"
     inkscape:cy="8.8999996"
     inkscape:cx="18.450001"
     inkscape:zoom="43.940485"
     showgrid="false"
     id="namedview10"
     inkscape:window-height="480"
     inkscape:window-width="640"
     inkscape:pageshadow="2"
     inkscape:pageopacity="0"
     guidetolerance="10"
     gridtolerance="10"
     objecttolerance="10"
     borderopacity="1"
     bordercolor="#666666"
     pagecolor="#ffffff" />
  <path
     id="path2"
     fill="#82aaff"
     d="M.2 15C2 7.1 8.6 1.1 16.8.4h.1c.5 0 1-.1 1.5-.1s1 0 1.5.1h.1c8.3.7 15 6.7 16.7 14.6.1.3 0 .4-.1.6-.1.2-.5.3-.5.3H.8s-.4-.1-.5-.3-.1-.4-.1-.6z" />
  <path
     id="path4"
     fill="#ffffff"
     d="M19.8 17c-.1 0-.3-.1-.4-.2L16.6 13c-.1-.1-.1-.3-.1-.4 0-.1.1-.3.2-.3L33 3.2c.1 0 .2-.1.2-.1.2 0 .3.1.4.2.2.2.1.5-.1.7L20.2 16.9c-.1.1-.2.1-.4.1z" />
  <path
     id="path6"
     fill="#82aaff"
     d="M33.2 3.7L19.8 16.5 17 12.7l16.2-9m0-1c-.2 0-.3 0-.5.1l-16.2 9.1c-.3.1-.4.4-.5.7-.1.3 0 .6.2.8l2.8 3.8c.2.2.4.4.7.4h.1c.3 0 .5-.1.7-.3L33.9 4.4c.4-.4.4-.9.1-1.3-.2-.3-.5-.4-.8-.4z" />
</svg>
